<?xml version="1.0" encoding="UTF-8" standalone="no"?>
<!-- Created with Inkscape (http://www.inkscape.org/) -->

<svg
   width="59.817772mm"
   height="49.600292mm"
   viewBox="0 0 59.817772 49.600293"
   version="1.1"
   id="svg1"
   inkscape:version="1.3 (0e150ed, 2023-07-21)"
   sodipodi:docname="icon-brain.svg"
   xmlns:inkscape="http://www.inkscape.org/namespaces/inkscape"
   xmlns:sodipodi="http://sodipodi.sourceforge.net/DTD/sodipodi-0.dtd"
   xmlns="http://www.w3.org/2000/svg"
   xmlns:svg="http://www.w3.org/2000/svg">
  <sodipodi:namedview
     id="namedview1"
     pagecolor="#ffffff"
     bordercolor="#000000"
     borderopacity="0.25"
     inkscape:showpageshadow="2"
     inkscape:pageopacity="0.0"
     inkscape:pagecheckerboard="true"
     inkscape:deskcolor="#d1d1d1"
     inkscape:document-units="mm"
     inkscape:zoom="3.1263835"
     inkscape:cx="126.34406"
     inkscape:cy="117.2281"
     inkscape:window-width="1920"
     inkscape:window-height="1022"
     inkscape:window-x="1470"
     inkscape:window-y="30"
     inkscape:window-maximized="1"
     inkscape:current-layer="layer1" />
  <defs
     id="defs1" />
  <g
     inkscape:label="Capa 1"
     inkscape:groupmode="layer"
     id="layer1"
     transform="translate(-99.608588,-107.22773)">
    <g
       id="g1">
      <g
         id="g34"
         transform="translate(224.76124,-8.2822178)"
         style="fill:#000000;stroke:#ffffff;stroke-width:1.32291667;stroke-dasharray:none">
        <g
           id="g14"
           transform="translate(-3.9121204,-3.2376174)"
           style="fill:#000000;stroke:#ffffff;stroke-width:1.32291667;stroke-dasharray:none">
          <g
             id="g13"
             style="fill:#000000;stroke:#ffffff;stroke-width:1.32291667;stroke-dasharray:none">
            <path
               id="path1"
               style="fill:#000000;fill-opacity:1;stroke:#ffffff;stroke-width:1.32291667;stroke-dasharray:none"
               d="m -66.853753,135.6101 v 15.875 c 2.198686,0 3.96875,-1.77006 3.96875,-3.96875 v -7.9375 c 0,-2.19868 -1.770064,-3.96875 -3.96875,-3.96875 z" />
            <g
               id="g6"
               transform="translate(-65.230655,15.406445)"
               style="opacity:1;fill:#000000;stroke:#ffffff;stroke-width:1.32291667;stroke-dasharray:none">
              <path
                 id="path2"
                 style="opacity:1;fill:#000000;fill-opacity:1;stroke:#ffffff;stroke-width:1.32291667;stroke-dasharray:none"
                 d="m -19.738072,104.3294 a 5.953125,5.9875879 0 0 0 -1.26866,0.33796 5.953125,5.9875879 0 0 0 -1.16479,0.60927 5.953125,5.9875879 0 0 0 -1.00355,0.85111 5.953125,5.9875879 0 0 0 -0.79324,1.05161 5.953125,5.9875879 0 0 0 -0.54518,1.20096 v 39.88697 a 5.2916665,5.2916665 0 0 0 0.22169,0.59377 5.2916665,5.2916665 0 0 0 0.36173,0.66249 5.2916665,5.2916665 0 0 0 0.45217,0.60461 5.2916665,5.2916665 0 0 0 0.53382,0.53382 5.2916665,5.2916665 0 0 0 0.60462,0.45217 5.2916665,5.2916665 0 0 0 0.66249,0.36173 5.2916665,5.2916665 0 0 0 0.70745,0.26407 5.2916665,5.2916665 0 0 0 0.73587,0.1602 7.9375,7.9375 0 0 0 0.75499,0.0543 7.9375,7.9375 0 0 0 0.755,-0.0543 7.9375,7.9375 0 0 0 0.37465,-0.0269 7.9375,7.9375 0 0 0 1.10691,-0.24029 7.9375,7.9375 0 0 0 1.06092,-0.39584 7.9375,7.9375 0 0 0 0.99373,-0.54312 7.9375,7.9375 0 0 0 0.90692,-0.67851 7.9375,7.9375 0 0 0 0.80047,-0.80099 7.9375,7.9375 0 0 0 0.67903,-0.9064 7.9375,7.9375 0 0 0 0.5426,-0.99374 7.9375,7.9375 0 0 0 0.39584,-1.06143 7.9375,7.9375 0 0 0 0.24082,-1.1064 7.9375,7.9375 0 0 0 0.006,-0.0413 7.9375,7.9375 0 0 0 0.006,-0.0419 7.9375,7.9375 0 0 0 0.006,-0.0418 7.9375,7.9375 0 0 0 0.005,-0.0413 7.9375,7.9375 0 0 0 0.005,-0.0419 7.9375,7.9375 0 0 0 0.005,-0.0413 7.9375,7.9375 0 0 0 0.004,-0.0419 7.9375,7.9375 0 0 0 0.005,-0.0419 7.9375,7.9375 0 0 0 0.004,-0.0419 7.9375,7.9375 0 0 0 0.004,-0.0419 7.9375,7.9375 0 0 0 0.004,-0.0419 7.9375,7.9375 0 0 0 0.004,-0.0419 7.9375,7.9375 0 0 0 0.003,-0.0419 7.9375,7.9375 0 0 0 0.003,-0.0419 7.9375,7.9375 0 0 0 0.003,-0.0418 7.9375,7.9375 0 0 0 0.003,-0.0419 7.9375,7.9375 0 0 0 0.003,-0.0419 7.9375,7.9375 0 0 0 0.002,-0.0419 7.9375,7.9375 0 0 0 0.002,-0.0419 7.9375,7.9375 0 0 0 0.002,-0.0419 7.9375,7.9375 0 0 0 10e-4,-0.0424 7.9375,7.9375 0 0 0 0.002,-0.0419 7.9375,7.9375 0 0 0 10e-4,-0.0419 7.9375,7.9375 0 0 0 5.2e-4,-0.0419 7.9375,7.9375 0 0 0 5.2e-4,-0.0424 7.9375,7.9375 0 0 0 5.1e-4,-0.0419 7.9375,7.9375 0 0 0 0,-0.0419 7.9375,7.9375 0 0 0 0,-0.004 7.9375,7.9375 0 0 0 0,-0.004 7.9375,7.9375 0 0 0 0,-0.004 7.9375,7.9375 0 0 0 0,-0.004 7.9375,7.9375 0 0 0 0,-0.004 7.9375,7.9375 0 0 0 0,-0.004 7.9375,7.9375 0 0 0 0,-0.004 7.9375,7.9375 0 0 0 0,-0.004 7.9375,7.9375 0 0 0 0,-0.004 7.9375,7.9375 0 0 0 0,-0.004 7.9375,7.9375 0 0 0 0,-0.004 7.9375,7.9375 0 0 0 0,-0.004 7.9375,7.9375 0 0 0 0,-0.004 7.9375,7.9375 0 0 0 0,-0.004 7.9375,7.9375 0 0 0 0,-0.004 7.9375,7.9375 0 0 0 0,-0.004 7.9375,7.9375 0 0 0 0,-0.004 7.9375,7.9375 0 0 0 0,-0.004 7.9375,7.9375 0 0 0 0,-0.004 7.9375,7.9375 0 0 0 0,-0.004 7.9375,7.9375 0 0 0 0,-0.004 7.9375,7.9375 0 0 0 -5.1e-4,-0.004 7.9375,7.9375 0 0 0 0,-0.004 7.9375,7.9375 0 0 0 0,-0.004 7.9375,7.9375 0 0 0 0,-0.004 7.9375,7.9375 0 0 0 0,-0.004 7.9375,7.9375 0 0 0 0,-0.004 7.9375,7.9375 0 0 0 0,-0.004 7.9375,7.9375 0 0 0 0.93379,0.0667 7.9375,7.9375 0 0 0 1.5203196,-0.14831 7.9375,7.9375 0 0 0 1.46348,-0.43718 7.9375,7.9375 0 0 0 1.35288,-0.70952 7.9375,7.9375 0 0 0 1.19218,-0.95498 7.9375,7.9375 0 0 0 0.98702,-1.16633 7.9375,7.9375 0 0 0 0.74517,-1.33326 v -19.94555 a 13.229167,13.229167 0 0 0 -1.31981,-1.13533 13.229167,13.229167 0 0 0 -1.45676,-0.9524 13.229167,13.229167 0 0 0 -1.56993,-0.75292 6.6145835,6.6145835 0 0 0 0.25786,-1.02681 6.6145835,6.6145835 0 0 0 0.091,-1.05472 6.6145835,6.6145835 0 0 0 -0.20464,-1.63091 6.6145835,6.6145835 0 0 0 -0.60048,-1.53014 6.6145835,6.6145835 0 0 0 -0.95963,-1.3348 6.6145835,6.6145835 0 0 0 -1.2583296,-1.0573 6.6145835,6.6145835 0 0 0 -1.481041,-0.71365 6.6145835,6.6145835 0 0 0 -1.61076,-0.32711 5.953125,5.9875879 0 0 0 -0.77411,-1.26194 5.953125,5.9875879 0 0 0 -1.05885,-1.03146 5.953125,5.9875879 0 0 0 -1.27847,-0.73846 5.953125,5.9875879 0 0 0 -1.41956,-0.39997 z" />
              <g
                 id="g5"
                 style="fill:#000000;stroke:#ffffff;stroke-width:1.32291667;stroke-dasharray:none"
                 transform="translate(-169.88398,-9.3000529)">
                <g
                   id="g4"
                   style="fill:#000000;stroke:#ffffff;stroke-width:1.32291667;stroke-dasharray:none">
                  <path
                     id="path3"
                     style="opacity:1;fill:#000000;fill-opacity:1;stroke:#ffffff;stroke-width:1.32291667;stroke-dasharray:none"
                     d="m 153.6609,118.01037 a 1.984375,1.984375 0 0 0 -1.98437,1.98437 1.984375,1.984375 0 0 0 1.32292,1.86552 v 5.40949 l -4.78111,4.7811 -0.20515,0.20516 v 1.61024 3.74085 h 1.32291 v -4.80332 l 4.88704,-4.88704 0.0992,-0.0992 v -0.73794 -5.21363 a 1.984375,1.984375 0 0 0 1.32292,-1.87121 1.984375,1.984375 0 0 0 -1.98438,-1.98437 z m 0,1.32291 a 0.66145831,0.66145831 0 0 1 0.66146,0.66146 0.66145831,0.66145831 0 0 1 -0.66146,0.66146 0.66145831,0.66145831 0 0 1 -0.66145,-0.66146 0.66145831,0.66145831 0 0 1 0.66145,-0.66146 z" />
                  <path
                     id="path4"
                     style="opacity:1;fill:#000000;fill-opacity:1;stroke:#ffffff;stroke-width:1.32291667;stroke-dasharray:none"
                     d="m 148.18889,117.35253 v 6.86728 a 1.984375,1.984375 0 0 0 -1.32292,1.86552 1.984375,1.984375 0 0 0 1.98438,1.98437 1.984375,1.984375 0 0 0 1.98437,-1.98437 1.984375,1.984375 0 0 0 -1.32292,-1.86552 v -6.86728 z m 0.66146,8.07134 a 0.66145831,0.66145831 0 0 1 0.66145,0.66146 0.66145831,0.66145831 0 0 1 -0.66145,0.66146 0.66145831,0.66145831 0 0 1 -0.66146,-0.66146 0.66145831,0.66145831 0 0 1 0.66146,-0.66146 z" />
                </g>
                <circle
                   style="opacity:1;fill:#000000;fill-opacity:1;stroke:#ffffff;stroke-width:1.32291667;stroke-dasharray:none"
                   id="circle4"
                   cx="155.42859"
                   cy="137.97116"
                   r="3.7041667" />
              </g>
            </g>
            <path
               d="m -70.17384,133.17008 a 13.229167,13.229167 0 0 1 0.294556,0.19275 13.229167,13.229167 0 0 1 1.292944,1.11208 v -8.32869 a 2.6458333,2.6458333 0 0 0 0.746208,-0.37259 2.6458333,2.6458333 0 0 0 0.592729,-0.58601 2.6458333,2.6458333 0 0 0 0.381372,-0.74156 2.6458333,2.6458333 0 0 0 0.131775,-0.8232 2.6458333,2.6458333 0 0 0 -0.201538,-1.01286 2.6458333,2.6458333 0 0 0 -0.573609,-0.85835 2.6458333,2.6458333 0 0 0 -0.858345,-0.57361 2.6458333,2.6458333 0 0 0 -1.012342,-0.20102 2.6458333,2.6458333 0 0 0 -1.012341,0.20102 2.6458333,2.6458333 0 0 0 -0.858346,0.57361 2.6458333,2.6458333 0 0 0 -0.573608,0.85835 2.6458333,2.6458333 0 0 0 -0.201538,1.01286 2.6458333,2.6458333 0 0 0 0.132292,0.82217 2.6458333,2.6458333 0 0 0 0.381372,0.74104 2.6458333,2.6458333 0 0 0 0.592728,0.58549 2.6458333,2.6458333 0 0 0 0.745691,0.37207 z m 0.79375,-10.60556 a 1.0583333,1.0583333 0 0 1 0.529167,0.1416 1.0583333,1.0583333 0 0 1 0.387573,0.38757 1.0583333,1.0583333 0 0 1 0.141594,0.52917 1.0583333,1.0583333 0 0 1 -0.02015,0.20619 1.0583333,1.0583333 0 0 1 -0.06046,0.19843 1.0583333,1.0583333 0 0 1 -0.09767,0.18294 1.0583333,1.0583333 0 0 1 -0.131775,0.16071 1.0583333,1.0583333 0 0 1 -0.160197,0.13126 1.0583333,1.0583333 0 0 1 -0.182934,0.0982 1.0583333,1.0583333 0 0 1 -0.198955,0.0599 1.0583333,1.0583333 0 0 1 -0.206189,0.0207 1.0583333,1.0583333 0 0 1 -0.529166,-0.14211 1.0583333,1.0583333 0 0 1 -0.387574,-0.38706 1.0583333,1.0583333 0 0 1 -0.141593,-0.52916 1.0583333,1.0583333 0 0 1 0.141593,-0.52917 1.0583333,1.0583333 0 0 1 0.387574,-0.38757 1.0583333,1.0583333 0 0 1 0.529166,-0.1416 z"
               style="opacity:1;fill:#000000;fill-opacity:1;stroke:#ffffff;stroke-width:1.32291667;stroke-dasharray:none"
               id="path9" />
          </g>
        </g>
        <path
           id="path18"
           style="fill:#000000;stroke:#ffffff;stroke-width:1.32291667;stroke-dasharray:none"
           d="m -76.659631,148.22329 a 1.984375,1.984375 0 0 0 -0.28216,0.0207 1.984375,1.984375 0 0 0 -0.27647,0.0605 1.984375,1.984375 0 0 0 -0.26561,0.0987 1.984375,1.984375 0 0 0 -0.24857,0.13591 1.984375,1.984375 0 0 0 -0.22634,0.1695 1.984375,1.984375 0 0 0 -0.2005,0.2005 1.984375,1.984375 0 0 0 -0.1695,0.22635 1.984375,1.984375 0 0 0 -0.13591,0.24856 1.984375,1.984375 0 0 0 -0.0605,0.16278 h -6.06682 v 1.32292 8.0672 h -6.61458 v 1.32292 h 6.61458 v 0.0367 h 1.32292 v -9.42681 h 4.7439 a 1.984375,1.984375 0 0 0 0.0605,0.16278 1.984375,1.984375 0 0 0 0.13591,0.24856 1.984375,1.984375 0 0 0 0.1695,0.22686 1.984375,1.984375 0 0 0 0.2005,0.19999 1.984375,1.984375 0 0 0 0.22634,0.17001 1.984375,1.984375 0 0 0 0.24857,0.1354 1.984375,1.984375 0 0 0 0.26561,0.0992 1.984375,1.984375 0 0 0 0.27647,0.0599 1.984375,1.984375 0 0 0 0.28216,0.0202 1.984375,1.984375 0 0 0 0.28267,-0.0202 1.984375,1.984375 0 0 0 0.27647,-0.0599 1.984375,1.984375 0 0 0 0.26561,-0.0992 1.984375,1.984375 0 0 0 0.24857,-0.1354 1.984375,1.984375 0 0 0 0.22634,-0.17001 1.984375,1.984375 0 0 0 0.2005,-0.19999 1.984375,1.984375 0 0 0 0.1695,-0.22686 1.984375,1.984375 0 0 0 0.13539,-0.24856 1.984375,1.984375 0 0 0 0.0987,-0.2651 1.984375,1.984375 0 0 0 0.0605,-0.27647 1.984375,1.984375 0 0 0 0.0196,-0.28267 1.984375,1.984375 0 0 0 -0.002,-0.0971 1.984375,1.984375 0 0 0 -0.007,-0.0972 1.984375,1.984375 0 0 0 -0.0119,-0.0966 1.984375,1.984375 0 0 0 -0.0165,-0.0961 1.984375,1.984375 0 0 0 -0.0217,-0.0951 1.984375,1.984375 0 0 0 -0.0258,-0.0935 1.984375,1.984375 0 0 0 -0.0305,-0.0925 1.984375,1.984375 0 0 0 -0.0351,-0.091 1.984375,1.984375 0 0 0 -0.0393,-0.0894 1.984375,1.984375 0 0 0 -0.0439,-0.0868 1.984375,1.984375 0 0 0 -0.0481,-0.0847 1.984375,1.984375 0 0 0 -0.0522,-0.0822 1.984375,1.984375 0 0 0 -0.0558,-0.0796 1.984375,1.984375 0 0 0 -0.0599,-0.077 1.984375,1.984375 0 0 0 -0.0636,-0.0739 1.984375,1.984375 0 0 0 -0.0672,-0.0703 1.984375,1.984375 0 0 0 -0.0708,-0.0672 1.984375,1.984375 0 0 0 -0.0734,-0.0636 1.984375,1.984375 0 0 0 -0.077,-0.0599 1.984375,1.984375 0 0 0 -0.0796,-0.0563 1.984375,1.984375 0 0 0 -0.0822,-0.0517 1.984375,1.984375 0 0 0 -0.0847,-0.0481 1.984375,1.984375 0 0 0 -0.0873,-0.0439 1.984375,1.984375 0 0 0 -0.0889,-0.0393 1.984375,1.984375 0 0 0 -0.091,-0.0351 1.984375,1.984375 0 0 0 -0.0925,-0.0305 1.984375,1.984375 0 0 0 -0.0935,-0.0264 1.984375,1.984375 0 0 0 -0.0951,-0.0212 1.984375,1.984375 0 0 0 -0.0961,-0.0165 1.984375,1.984375 0 0 0 -0.0966,-0.0119 1.984375,1.984375 0 0 0 -0.0972,-0.007 1.984375,1.984375 0 0 0 -0.0977,-0.003 z m 0,1.32291 a 0.66145831,0.66145831 0 0 1 0.0548,0.003 0.66145831,0.66145831 0 0 1 0.0543,0.007 0.66145831,0.66145831 0 0 1 0.0537,0.0109 0.66145831,0.66145831 0 0 1 0.0522,0.016 0.66145831,0.66145831 0 0 1 0.0512,0.0196 0.66145831,0.66145831 0 0 1 0.0491,0.0238 0.66145831,0.66145831 0 0 1 0.047,0.0284 0.66145831,0.66145831 0 0 1 0.0444,0.0315 0.66145831,0.66145831 0 0 1 0.0413,0.0351 0.66145831,0.66145831 0 0 1 0.0388,0.0388 0.66145831,0.66145831 0 0 1 0.0357,0.0419 0.66145831,0.66145831 0 0 1 0.0315,0.0444 0.66145831,0.66145831 0 0 1 0.0279,0.047 0.66145831,0.66145831 0 0 1 0.0243,0.0491 0.66145831,0.66145831 0 0 1 0.0196,0.0512 0.66145831,0.66145831 0 0 1 0.0155,0.0522 0.66145831,0.66145831 0 0 1 0.0114,0.0537 0.66145831,0.66145831 0 0 1 0.007,0.0543 0.66145831,0.66145831 0 0 1 0.002,0.0543 0.66145831,0.66145831 0 0 1 -0.0165,0.14728 0.66145831,0.66145831 0 0 1 -0.0486,0.14005 0.66145831,0.66145831 0 0 1 -0.0791,0.12505 0.66145831,0.66145831 0 0 1 -0.10439,0.10491 0.66145831,0.66145831 0 0 1 -0.12557,0.0785 0.66145831,0.66145831 0 0 1 -0.14005,0.0491 0.66145831,0.66145831 0 0 1 -0.14727,0.0165 0.66145831,0.66145831 0 0 1 -0.14676,-0.0165 0.66145831,0.66145831 0 0 1 -0.14005,-0.0491 0.66145831,0.66145831 0 0 1 -0.12557,-0.0785 0.66145831,0.66145831 0 0 1 -0.10439,-0.10491 0.66145831,0.66145831 0 0 1 -0.0791,-0.12505 0.66145831,0.66145831 0 0 1 -0.0486,-0.14005 0.66145831,0.66145831 0 0 1 -0.017,-0.14728 0.66145831,0.66145831 0 0 1 0.017,-0.14727 0.66145831,0.66145831 0 0 1 0.0486,-0.13953 0.66145831,0.66145831 0 0 1 0.0791,-0.12557 0.66145831,0.66145831 0 0 1 0.10439,-0.10491 0.66145831,0.66145831 0 0 1 0.12557,-0.0785 0.66145831,0.66145831 0 0 1 0.14005,-0.0491 0.66145831,0.66145831 0 0 1 0.14676,-0.0165 z" />
        <path
           id="path24"
           style="fill:#000000;stroke:#ffffff;stroke-width:1.32291667;stroke-dasharray:none"
           d="m -80.599441,125.54818 a 1.984375,1.984375 0 0 0 -0.28216,0.0202 1.984375,1.984375 0 0 0 -0.27647,0.0605 1.984375,1.984375 0 0 0 -0.26561,0.0987 1.984375,1.984375 0 0 0 -0.24857,0.13591 1.984375,1.984375 0 0 0 -0.22634,0.1695 1.984375,1.984375 0 0 0 -0.2005,0.2005 1.984375,1.984375 0 0 0 -0.1695,0.22635 1.984375,1.984375 0 0 0 -0.13591,0.24856 1.984375,1.984375 0 0 0 -0.0987,0.2651 1.984375,1.984375 0 0 0 -0.0599,0.27699 1.984375,1.984375 0 0 0 -0.0207,0.28215 1.984375,1.984375 0 0 0 0.0207,0.28267 1.984375,1.984375 0 0 0 0.0599,0.27647 1.984375,1.984375 0 0 0 0.0987,0.2651 1.984375,1.984375 0 0 0 0.13591,0.24856 1.984375,1.984375 0 0 0 0.1695,0.22686 1.984375,1.984375 0 0 0 0.2005,0.19999 1.984375,1.984375 0 0 0 0.22634,0.17002 1.984375,1.984375 0 0 0 0.24857,0.13539 1.984375,1.984375 0 0 0 0.16278,0.061 v 4.99607 h -0.0253 v 1.32292 h 4.23333 v 1.29656 a 1.3229166,1.3229166 0 0 0 -0.66146,1.14567 1.3229166,1.3229166 0 0 0 1.32292,1.32291 1.3229166,1.3229166 0 0 0 1.32291,-1.32291 1.3229166,1.3229166 0 0 0 -0.66145,-1.14412 v -1.29811 -1.32292 h -1.32292 -2.8851 v -4.99607 a 1.984375,1.984375 0 0 0 0.1633,-0.061 1.984375,1.984375 0 0 0 0.24856,-0.13539 1.984375,1.984375 0 0 0 0.22635,-0.17002 1.984375,1.984375 0 0 0 0.2005,-0.19999 1.984375,1.984375 0 0 0 0.1695,-0.22686 1.984375,1.984375 0 0 0 0.13539,-0.24856 1.984375,1.984375 0 0 0 0.0992,-0.2651 1.984375,1.984375 0 0 0 0.06,-0.27647 1.984375,1.984375 0 0 0 0.0202,-0.28267 1.984375,1.984375 0 0 0 -0.002,-0.0972 1.984375,1.984375 0 0 0 -0.007,-0.0971 1.984375,1.984375 0 0 0 -0.0119,-0.0966 1.984375,1.984375 0 0 0 -0.0165,-0.0961 1.984375,1.984375 0 0 0 -0.0217,-0.0951 1.984375,1.984375 0 0 0 -0.0258,-0.0935 1.984375,1.984375 0 0 0 -0.0305,-0.0925 1.984375,1.984375 0 0 0 -0.0351,-0.091 1.984375,1.984375 0 0 0 -0.0393,-0.0894 1.984375,1.984375 0 0 0 -0.0439,-0.0868 1.984375,1.984375 0 0 0 -0.0481,-0.0847 1.984375,1.984375 0 0 0 -0.0522,-0.0822 1.984375,1.984375 0 0 0 -0.0558,-0.0796 1.984375,1.984375 0 0 0 -0.0599,-0.077 1.984375,1.984375 0 0 0 -0.0636,-0.0739 1.984375,1.984375 0 0 0 -0.0672,-0.0703 1.984375,1.984375 0 0 0 -0.0708,-0.0672 1.984375,1.984375 0 0 0 -0.0734,-0.0636 1.984375,1.984375 0 0 0 -0.077,-0.0599 1.984375,1.984375 0 0 0 -0.0796,-0.0563 1.984375,1.984375 0 0 0 -0.0822,-0.0517 1.984375,1.984375 0 0 0 -0.0847,-0.0481 1.984375,1.984375 0 0 0 -0.0873,-0.0439 1.984375,1.984375 0 0 0 -0.0889,-0.0393 1.984375,1.984375 0 0 0 -0.091,-0.0351 1.984375,1.984375 0 0 0 -0.0925,-0.0305 1.984375,1.984375 0 0 0 -0.0935,-0.0264 1.984375,1.984375 0 0 0 -0.0951,-0.0212 1.984375,1.984375 0 0 0 -0.0961,-0.0165 1.984375,1.984375 0 0 0 -0.0966,-0.0119 1.984375,1.984375 0 0 0 -0.0971,-0.007 1.984375,1.984375 0 0 0 -0.0977,-0.003 z m 0,1.32292 a 0.66145831,0.66145831 0 0 1 0.0548,0.003 0.66145831,0.66145831 0 0 1 0.0543,0.007 0.66145831,0.66145831 0 0 1 0.0543,0.0108 0.66145831,0.66145831 0 0 1 0.0522,0.016 0.66145831,0.66145831 0 0 1 0.0512,0.0196 0.66145831,0.66145831 0 0 1 0.0491,0.0238 0.66145831,0.66145831 0 0 1 0.047,0.0284 0.66145831,0.66145831 0 0 1 0.0444,0.0315 0.66145831,0.66145831 0 0 1 0.0408,0.0351 0.66145831,0.66145831 0 0 1 0.0393,0.0388 0.66145831,0.66145831 0 0 1 0.0357,0.0419 0.66145831,0.66145831 0 0 1 0.0315,0.0444 0.66145831,0.66145831 0 0 1 0.0279,0.047 0.66145831,0.66145831 0 0 1 0.0243,0.0491 0.66145831,0.66145831 0 0 1 0.0196,0.0512 0.66145831,0.66145831 0 0 1 0.0155,0.0522 0.66145831,0.66145831 0 0 1 0.0114,0.0538 0.66145831,0.66145831 0 0 1 0.007,0.0543 0.66145831,0.66145831 0 0 1 0.002,0.0543 0.66145831,0.66145831 0 0 1 -0.0165,0.14727 0.66145831,0.66145831 0 0 1 -0.0486,0.14005 0.66145831,0.66145831 0 0 1 -0.0791,0.12505 0.66145831,0.66145831 0 0 1 -0.10438,0.10491 0.66145831,0.66145831 0 0 1 -0.12558,0.0785 0.66145831,0.66145831 0 0 1 -0.14004,0.0491 0.66145831,0.66145831 0 0 1 -0.14728,0.0165 0.66145831,0.66145831 0 0 1 -0.14676,-0.0165 0.66145831,0.66145831 0 0 1 -0.14004,-0.0491 0.66145831,0.66145831 0 0 1 -0.12558,-0.0785 0.66145831,0.66145831 0 0 1 -0.10438,-0.10491 0.66145831,0.66145831 0 0 1 -0.0791,-0.12505 0.66145831,0.66145831 0 0 1 -0.0486,-0.14005 0.66145831,0.66145831 0 0 1 -0.0171,-0.14727 0.66145831,0.66145831 0 0 1 0.0171,-0.14728 0.66145831,0.66145831 0 0 1 0.0486,-0.13953 0.66145831,0.66145831 0 0 1 0.0791,-0.12557 0.66145831,0.66145831 0 0 1 0.10438,-0.1049 0.66145831,0.66145831 0 0 1 0.12558,-0.0786 0.66145831,0.66145831 0 0 1 0.14004,-0.0491 0.66145831,0.66145831 0 0 1 0.14676,-0.0165 z" />
        <g
           id="g33"
           style="fill:#000000;stroke:#ffffff;stroke-width:1.32291667;stroke-dasharray:none">
          <g
             id="g31"
             transform="matrix(-1,0,0,1,-186.57541,-3.2376173)"
             style="fill:#000000;stroke:#ffffff;stroke-width:1.32291667;stroke-dasharray:none">
            <path
               id="path25"
               style="fill:#000000;fill-opacity:1;stroke:#ffffff;stroke-width:1.32291667;stroke-dasharray:none"
               d="m -66.853753,135.6101 v 15.875 c 2.198686,0 3.96875,-1.77006 3.96875,-3.96875 v -7.9375 c 0,-2.19868 -1.770064,-3.96875 -3.96875,-3.96875 z" />
            <g
               id="g30"
               transform="translate(-65.230655,15.406445)"
               style="opacity:1;fill:#000000;stroke:#ffffff;stroke-width:1.32291667;stroke-dasharray:none">
              <path
                 id="path26"
                 style="opacity:1;fill:#000000;fill-opacity:1;stroke:#ffffff;stroke-width:1.32291667;stroke-dasharray:none"
                 d="m -19.738072,104.3294 a 5.953125,5.9875879 0 0 0 -1.26866,0.33796 5.953125,5.9875879 0 0 0 -1.16479,0.60927 5.953125,5.9875879 0 0 0 -1.00355,0.85111 5.953125,5.9875879 0 0 0 -0.79324,1.05161 5.953125,5.9875879 0 0 0 -0.54518,1.20096 v 39.88697 a 5.2916665,5.2916665 0 0 0 0.22169,0.59377 5.2916665,5.2916665 0 0 0 0.36173,0.66249 5.2916665,5.2916665 0 0 0 0.45217,0.60461 5.2916665,5.2916665 0 0 0 0.53382,0.53382 5.2916665,5.2916665 0 0 0 0.60462,0.45217 5.2916665,5.2916665 0 0 0 0.66249,0.36173 5.2916665,5.2916665 0 0 0 0.70745,0.26407 5.2916665,5.2916665 0 0 0 0.73587,0.1602 7.9375,7.9375 0 0 0 0.75499,0.0543 7.9375,7.9375 0 0 0 0.755,-0.0543 7.9375,7.9375 0 0 0 0.37465,-0.0269 7.9375,7.9375 0 0 0 1.10691,-0.24029 7.9375,7.9375 0 0 0 1.06092,-0.39584 7.9375,7.9375 0 0 0 0.99373,-0.54312 7.9375,7.9375 0 0 0 0.90692,-0.67851 7.9375,7.9375 0 0 0 0.80047,-0.80099 7.9375,7.9375 0 0 0 0.67903,-0.9064 7.9375,7.9375 0 0 0 0.5426,-0.99374 7.9375,7.9375 0 0 0 0.39584,-1.06143 7.9375,7.9375 0 0 0 0.24082,-1.1064 7.9375,7.9375 0 0 0 0.006,-0.0413 7.9375,7.9375 0 0 0 0.006,-0.0419 7.9375,7.9375 0 0 0 0.006,-0.0418 7.9375,7.9375 0 0 0 0.005,-0.0413 7.9375,7.9375 0 0 0 0.005,-0.0419 7.9375,7.9375 0 0 0 0.005,-0.0413 7.9375,7.9375 0 0 0 0.004,-0.0419 7.9375,7.9375 0 0 0 0.005,-0.0419 7.9375,7.9375 0 0 0 0.004,-0.0419 7.9375,7.9375 0 0 0 0.004,-0.0419 7.9375,7.9375 0 0 0 0.004,-0.0419 7.9375,7.9375 0 0 0 0.004,-0.0419 7.9375,7.9375 0 0 0 0.003,-0.0419 7.9375,7.9375 0 0 0 0.003,-0.0419 7.9375,7.9375 0 0 0 0.003,-0.0418 7.9375,7.9375 0 0 0 0.003,-0.0419 7.9375,7.9375 0 0 0 0.003,-0.0419 7.9375,7.9375 0 0 0 0.002,-0.0419 7.9375,7.9375 0 0 0 0.002,-0.0419 7.9375,7.9375 0 0 0 0.002,-0.0419 7.9375,7.9375 0 0 0 10e-4,-0.0424 7.9375,7.9375 0 0 0 0.002,-0.0419 7.9375,7.9375 0 0 0 10e-4,-0.0419 7.9375,7.9375 0 0 0 5.2e-4,-0.0419 7.9375,7.9375 0 0 0 5.2e-4,-0.0424 7.9375,7.9375 0 0 0 5.1e-4,-0.0419 7.9375,7.9375 0 0 0 0,-0.0419 7.9375,7.9375 0 0 0 0,-0.004 7.9375,7.9375 0 0 0 0,-0.004 7.9375,7.9375 0 0 0 0,-0.004 7.9375,7.9375 0 0 0 0,-0.004 7.9375,7.9375 0 0 0 0,-0.004 7.9375,7.9375 0 0 0 0,-0.004 7.9375,7.9375 0 0 0 0,-0.004 7.9375,7.9375 0 0 0 0,-0.004 7.9375,7.9375 0 0 0 0,-0.004 7.9375,7.9375 0 0 0 0,-0.004 7.9375,7.9375 0 0 0 0,-0.004 7.9375,7.9375 0 0 0 0,-0.004 7.9375,7.9375 0 0 0 0,-0.004 7.9375,7.9375 0 0 0 0,-0.004 7.9375,7.9375 0 0 0 0,-0.004 7.9375,7.9375 0 0 0 0,-0.004 7.9375,7.9375 0 0 0 0,-0.004 7.9375,7.9375 0 0 0 0,-0.004 7.9375,7.9375 0 0 0 0,-0.004 7.9375,7.9375 0 0 0 0,-0.004 7.9375,7.9375 0 0 0 0,-0.004 7.9375,7.9375 0 0 0 -5.1e-4,-0.004 7.9375,7.9375 0 0 0 0,-0.004 7.9375,7.9375 0 0 0 0,-0.004 7.9375,7.9375 0 0 0 0,-0.004 7.9375,7.9375 0 0 0 0,-0.004 7.9375,7.9375 0 0 0 0,-0.004 7.9375,7.9375 0 0 0 0,-0.004 7.9375,7.9375 0 0 0 0.93379,0.0667 7.9375,7.9375 0 0 0 1.5203196,-0.14831 7.9375,7.9375 0 0 0 1.46348,-0.43718 7.9375,7.9375 0 0 0 1.35288,-0.70952 7.9375,7.9375 0 0 0 1.19218,-0.95498 7.9375,7.9375 0 0 0 0.98702,-1.16633 7.9375,7.9375 0 0 0 0.74517,-1.33326 v -19.94555 a 13.229167,13.229167 0 0 0 -1.31981,-1.13533 13.229167,13.229167 0 0 0 -1.45676,-0.9524 13.229167,13.229167 0 0 0 -1.56993,-0.75292 6.6145835,6.6145835 0 0 0 0.25786,-1.02681 6.6145835,6.6145835 0 0 0 0.091,-1.05472 6.6145835,6.6145835 0 0 0 -0.20464,-1.63091 6.6145835,6.6145835 0 0 0 -0.60048,-1.53014 6.6145835,6.6145835 0 0 0 -0.95963,-1.3348 6.6145835,6.6145835 0 0 0 -1.2583296,-1.0573 6.6145835,6.6145835 0 0 0 -1.481041,-0.71365 6.6145835,6.6145835 0 0 0 -1.61076,-0.32711 5.953125,5.9875879 0 0 0 -0.77411,-1.26194 5.953125,5.9875879 0 0 0 -1.05885,-1.03146 5.953125,5.9875879 0 0 0 -1.27847,-0.73846 5.953125,5.9875879 0 0 0 -1.41956,-0.39997 z" />
              <g
                 id="g29"
                 style="fill:#000000;stroke:#ffffff;stroke-width:1.32291667;stroke-dasharray:none"
                 transform="translate(-169.88398,-9.3000529)">
                <g
                   id="g28"
                   style="fill:#000000;stroke:#ffffff;stroke-width:1.32291667;stroke-dasharray:none">
                  <path
                     id="path27"
                     style="opacity:1;fill:#000000;fill-opacity:1;stroke:#ffffff;stroke-width:1.32291667;stroke-dasharray:none"
                     d="m 153.6609,118.01037 a 1.984375,1.984375 0 0 0 -1.98437,1.98437 1.984375,1.984375 0 0 0 1.32292,1.86552 v 5.40949 l -4.78111,4.7811 -0.20515,0.20516 v 1.61024 3.74085 h 1.32291 v -4.80332 l 4.88704,-4.88704 0.0992,-0.0992 v -0.73794 -5.21363 a 1.984375,1.984375 0 0 0 1.32292,-1.87121 1.984375,1.984375 0 0 0 -1.98438,-1.98437 z m 0,1.32291 a 0.66145831,0.66145831 0 0 1 0.66146,0.66146 0.66145831,0.66145831 0 0 1 -0.66146,0.66146 0.66145831,0.66145831 0 0 1 -0.66145,-0.66146 0.66145831,0.66145831 0 0 1 0.66145,-0.66146 z" />
                  <path
                     id="path28"
                     style="opacity:1;fill:#000000;fill-opacity:1;stroke:#ffffff;stroke-width:1.32291667;stroke-dasharray:none"
                     d="m 148.18889,117.35253 v 6.86728 a 1.984375,1.984375 0 0 0 -1.32292,1.86552 1.984375,1.984375 0 0 0 1.98438,1.98437 1.984375,1.984375 0 0 0 1.98437,-1.98437 1.984375,1.984375 0 0 0 -1.32292,-1.86552 v -6.86728 z m 0.66146,8.07134 a 0.66145831,0.66145831 0 0 1 0.66145,0.66146 0.66145831,0.66145831 0 0 1 -0.66145,0.66146 0.66145831,0.66145831 0 0 1 -0.66146,-0.66146 0.66145831,0.66145831 0 0 1 0.66146,-0.66146 z" />
                </g>
                <circle
                   style="opacity:1;fill:#000000;fill-opacity:1;stroke:#ffffff;stroke-width:1.32291667;stroke-dasharray:none"
                   id="circle28"
                   cx="155.42859"
                   cy="137.97116"
                   r="3.7041667" />
              </g>
            </g>
            <path
               d="m -70.17384,133.17008 a 13.229167,13.229167 0 0 1 0.294556,0.19275 13.229167,13.229167 0 0 1 1.292944,1.11208 v -8.32869 a 2.6458333,2.6458333 0 0 0 0.746208,-0.37259 2.6458333,2.6458333 0 0 0 0.592729,-0.58601 2.6458333,2.6458333 0 0 0 0.381372,-0.74156 2.6458333,2.6458333 0 0 0 0.131775,-0.8232 2.6458333,2.6458333 0 0 0 -0.201538,-1.01286 2.6458333,2.6458333 0 0 0 -0.573609,-0.85835 2.6458333,2.6458333 0 0 0 -0.858345,-0.57361 2.6458333,2.6458333 0 0 0 -1.012342,-0.20102 2.6458333,2.6458333 0 0 0 -1.012341,0.20102 2.6458333,2.6458333 0 0 0 -0.858346,0.57361 2.6458333,2.6458333 0 0 0 -0.573608,0.85835 2.6458333,2.6458333 0 0 0 -0.201538,1.01286 2.6458333,2.6458333 0 0 0 0.132292,0.82217 2.6458333,2.6458333 0 0 0 0.381372,0.74104 2.6458333,2.6458333 0 0 0 0.592728,0.58549 2.6458333,2.6458333 0 0 0 0.745691,0.37207 z m 0.79375,-10.60556 a 1.0583333,1.0583333 0 0 1 0.529167,0.1416 1.0583333,1.0583333 0 0 1 0.387573,0.38757 1.0583333,1.0583333 0 0 1 0.141594,0.52917 1.0583333,1.0583333 0 0 1 -0.02015,0.20619 1.0583333,1.0583333 0 0 1 -0.06046,0.19843 1.0583333,1.0583333 0 0 1 -0.09767,0.18294 1.0583333,1.0583333 0 0 1 -0.131775,0.16071 1.0583333,1.0583333 0 0 1 -0.160197,0.13126 1.0583333,1.0583333 0 0 1 -0.182934,0.0982 1.0583333,1.0583333 0 0 1 -0.198955,0.0599 1.0583333,1.0583333 0 0 1 -0.206189,0.0207 1.0583333,1.0583333 0 0 1 -0.529166,-0.14211 1.0583333,1.0583333 0 0 1 -0.387574,-0.38706 1.0583333,1.0583333 0 0 1 -0.141593,-0.52916 1.0583333,1.0583333 0 0 1 0.141593,-0.52917 1.0583333,1.0583333 0 0 1 0.387574,-0.38757 1.0583333,1.0583333 0 0 1 0.529166,-0.1416 z"
               style="opacity:1;fill:#000000;fill-opacity:1;stroke:#ffffff;stroke-width:1.32291667;stroke-dasharray:none"
               id="path30" />
          </g>
          <g
             id="g32"
             style="fill:#000000;stroke:#ffffff;stroke-width:1.32291667;stroke-dasharray:none">
            <path
               id="path31"
               style="fill:#000000;stroke:#ffffff;stroke-width:1.32291667;stroke-dasharray:none"
               d="m -113.22305,146.49936 a 1.984375,1.984375 0 0 0 -0.28215,0.0202 1.984375,1.984375 0 0 0 -0.27647,0.0605 1.984375,1.984375 0 0 0 -0.26562,0.0987 1.984375,1.984375 0 0 0 -0.24856,0.13591 1.984375,1.984375 0 0 0 -0.22634,0.1695 1.984375,1.984375 0 0 0 -0.20051,0.2005 1.984375,1.984375 0 0 0 -0.1695,0.22634 1.984375,1.984375 0 0 0 -0.13591,0.24857 1.984375,1.984375 0 0 0 -0.0987,0.2651 1.984375,1.984375 0 0 0 -0.0599,0.27698 1.984375,1.984375 0 0 0 -0.0207,0.28216 1.984375,1.984375 0 0 0 0.0207,0.28267 1.984375,1.984375 0 0 0 0.0599,0.27646 1.984375,1.984375 0 0 0 0.0987,0.2651 1.984375,1.984375 0 0 0 0.13591,0.24857 1.984375,1.984375 0 0 0 0.1695,0.22686 1.984375,1.984375 0 0 0 0.20051,0.19999 1.984375,1.984375 0 0 0 0.22634,0.17001 1.984375,1.984375 0 0 0 0.24856,0.13539 1.984375,1.984375 0 0 0 0.26562,0.0992 1.984375,1.984375 0 0 0 0.27647,0.06 1.984375,1.984375 0 0 0 0.28215,0.0202 1.984375,1.984375 0 0 0 0.28267,-0.0202 1.984375,1.984375 0 0 0 0.27647,-0.06 1.984375,1.984375 0 0 0 0.26562,-0.0992 1.984375,1.984375 0 0 0 0.24856,-0.13539 1.984375,1.984375 0 0 0 0.22634,-0.17001 1.984375,1.984375 0 0 0 0.20051,-0.19999 1.984375,1.984375 0 0 0 0.1695,-0.22686 1.984375,1.984375 0 0 0 0.13539,-0.24857 1.984375,1.984375 0 0 0 0.061,-0.16278 h 3.57962 v 3.83595 a 1.3229166,1.3229166 0 0 0 -0.66145,1.14256 1.3229166,1.3229166 0 0 0 1.32291,1.32292 1.3229166,1.3229166 0 0 0 1.32292,-1.32292 1.3229166,1.3229166 0 0 0 -0.66146,-1.14567 v -3.83284 h 9.623187 v -1.32291 h -14.521077 a 1.984375,1.984375 0 0 0 -0.002,-0.007 1.984375,1.984375 0 0 0 -0.0351,-0.0909 1.984375,1.984375 0 0 0 -0.0393,-0.0894 1.984375,1.984375 0 0 0 -0.0439,-0.0868 1.984375,1.984375 0 0 0 -0.0481,-0.0848 1.984375,1.984375 0 0 0 -0.0522,-0.0822 1.984375,1.984375 0 0 0 -0.0558,-0.0796 1.984375,1.984375 0 0 0 -0.06,-0.077 1.984375,1.984375 0 0 0 -0.0636,-0.0739 1.984375,1.984375 0 0 0 -0.0672,-0.0703 1.984375,1.984375 0 0 0 -0.0708,-0.0672 1.984375,1.984375 0 0 0 -0.0734,-0.0636 1.984375,1.984375 0 0 0 -0.077,-0.0599 1.984375,1.984375 0 0 0 -0.0796,-0.0563 1.984375,1.984375 0 0 0 -0.0822,-0.0517 1.984375,1.984375 0 0 0 -0.0847,-0.0481 1.984375,1.984375 0 0 0 -0.0873,-0.0439 1.984375,1.984375 0 0 0 -0.0889,-0.0393 1.984375,1.984375 0 0 0 -0.091,-0.0351 1.984375,1.984375 0 0 0 -0.0925,-0.0305 1.984375,1.984375 0 0 0 -0.0935,-0.0264 1.984375,1.984375 0 0 0 -0.0951,-0.0212 1.984375,1.984375 0 0 0 -0.0961,-0.0165 1.984375,1.984375 0 0 0 -0.0966,-0.0119 1.984375,1.984375 0 0 0 -0.0971,-0.007 1.984375,1.984375 0 0 0 -0.0977,-0.003 z m 0,1.32292 a 0.66145831,0.66145831 0 0 1 0.0548,0.003 0.66145831,0.66145831 0 0 1 0.0543,0.007 0.66145831,0.66145831 0 0 1 0.0537,0.0108 0.66145831,0.66145831 0 0 1 0.0522,0.016 0.66145831,0.66145831 0 0 1 0.0512,0.0196 0.66145831,0.66145831 0 0 1 0.0491,0.0238 0.66145831,0.66145831 0 0 1 0.047,0.0284 0.66145831,0.66145831 0 0 1 0.0444,0.0315 0.66145831,0.66145831 0 0 1 0.0413,0.0351 0.66145831,0.66145831 0 0 1 0.0388,0.0388 0.66145831,0.66145831 0 0 1 0.0357,0.0419 0.66145831,0.66145831 0 0 1 0.0315,0.0444 0.66145831,0.66145831 0 0 1 0.0279,0.047 0.66145831,0.66145831 0 0 1 0.0243,0.0491 0.66145831,0.66145831 0 0 1 0.0196,0.0512 0.66145831,0.66145831 0 0 1 0.0155,0.0522 0.66145831,0.66145831 0 0 1 0.0114,0.0537 0.66145831,0.66145831 0 0 1 0.007,0.0543 0.66145831,0.66145831 0 0 1 0.002,0.0543 0.66145831,0.66145831 0 0 1 -0.0165,0.14728 0.66145831,0.66145831 0 0 1 -0.0486,0.14004 0.66145831,0.66145831 0 0 1 -0.0791,0.12506 0.66145831,0.66145831 0 0 1 -0.10438,0.1049 0.66145831,0.66145831 0 0 1 -0.12558,0.0786 0.66145831,0.66145831 0 0 1 -0.14004,0.0491 0.66145831,0.66145831 0 0 1 -0.14728,0.0165 0.66145831,0.66145831 0 0 1 -0.14676,-0.0165 0.66145831,0.66145831 0 0 1 -0.14004,-0.0491 0.66145831,0.66145831 0 0 1 -0.12558,-0.0786 0.66145831,0.66145831 0 0 1 -0.10438,-0.1049 0.66145831,0.66145831 0 0 1 -0.0791,-0.12506 0.66145831,0.66145831 0 0 1 -0.0486,-0.14004 0.66145831,0.66145831 0 0 1 -0.0171,-0.14728 0.66145831,0.66145831 0 0 1 0.0171,-0.14728 0.66145831,0.66145831 0 0 1 0.0486,-0.13952 0.66145831,0.66145831 0 0 1 0.0791,-0.12558 0.66145831,0.66145831 0 0 1 0.10438,-0.1049 0.66145831,0.66145831 0 0 1 0.12558,-0.0785 0.66145831,0.66145831 0 0 1 0.14004,-0.0491 0.66145831,0.66145831 0 0 1 0.14676,-0.0165 z" />
            <path
               id="path32"
               style="fill:#000000;fill-opacity:1;stroke:#ffffff;stroke-width:1.32291667;stroke-dasharray:none"
               d="m -110.72582,129.12936 a 1.3229166,1.3229166 0 0 0 -1.32291,1.32292 1.3229166,1.3229166 0 0 0 0.66145,1.14256 v 2.56729 h -1.85208 -1.32292 v 1.32292 4.49791 h -3.43958 v 1.32292 h 3.43958 1.32292 v -1.32292 -4.49791 h 1.85208 1.32292 v -1.32292 -2.56729 a 1.3229166,1.3229166 0 0 0 0.66146,-1.14256 1.3229166,1.3229166 0 0 0 -1.32292,-1.32292 z" />
          </g>
        </g>
        <path
           d="m -96.831267,153.11373 v -1.32292 h -2.778642 -1.322921 v 1.32292 3.42046 a 1.984375,1.984375 0 0 0 -0.16278,0.0605 1.984375,1.984375 0 0 0 -0.24856,0.13591 1.984375,1.984375 0 0 0 -0.22635,0.1695 1.984375,1.984375 0 0 0 -0.2005,0.2005 1.984375,1.984375 0 0 0 -0.1695,0.22635 1.984375,1.984375 0 0 0 -0.13591,0.24856 1.984375,1.984375 0 0 0 -0.0987,0.2651 1.984375,1.984375 0 0 0 -0.0594,0.27699 1.984375,1.984375 0 0 0 -0.0212,0.28215 1.984375,1.984375 0 0 0 0.0212,0.28267 1.984375,1.984375 0 0 0 0.0594,0.27647 1.984375,1.984375 0 0 0 0.0987,0.2651 1.984375,1.984375 0 0 0 0.13591,0.24856 1.984375,1.984375 0 0 0 0.1695,0.22686 1.984375,1.984375 0 0 0 0.2005,0.19999 1.984375,1.984375 0 0 0 0.22635,0.17001 1.984375,1.984375 0 0 0 0.24856,0.1354 1.984375,1.984375 0 0 0 0.26562,0.0992 1.984375,1.984375 0 0 0 0.27647,0.0605 1.984375,1.984375 0 0 0 0.28215,0.0202 1.984375,1.984375 0 0 0 0.282673,-0.0202 1.984375,1.984375 0 0 0 0.276469,-0.0605 1.984375,1.984375 0 0 0 0.265617,-0.0992 1.984375,1.984375 0 0 0 0.248563,-0.1354 1.984375,1.984375 0 0 0 0.226343,-0.17001 1.984375,1.984375 0 0 0 0.200505,-0.19999 1.984375,1.984375 0 0 0 0.169498,-0.22686 1.984375,1.984375 0 0 0 0.135392,-0.24856 1.984375,1.984375 0 0 0 0.09922,-0.2651 1.984375,1.984375 0 0 0 0.06046,-0.27647 1.984375,1.984375 0 0 0 0.0016,-0.0129 1.984375,1.984375 0 0 0 0.0021,-0.0134 1.984375,1.984375 0 0 0 0.0016,-0.0134 1.984375,1.984375 0 0 0 0.0016,-0.0134 1.984375,1.984375 0 0 0 0.0016,-0.0134 1.984375,1.984375 0 0 0 0.0015,-0.0134 1.984375,1.984375 0 0 0 10e-4,-0.0134 1.984375,1.984375 0 0 0 0.0016,-0.0134 1.984375,1.984375 0 0 0 0.001,-0.0134 1.984375,1.984375 0 0 0 0.001,-0.0134 1.984375,1.984375 0 0 0 10e-4,-0.0134 1.984375,1.984375 0 0 0 5.16e-4,-0.0134 1.984375,1.984375 0 0 0 0.001,-0.014 1.984375,1.984375 0 0 0 5.17e-4,-0.0134 1.984375,1.984375 0 0 0 5.16e-4,-0.0134 1.984375,1.984375 0 0 0 5.17e-4,-0.0134 1.984375,1.984375 0 0 0 5.17e-4,-0.0134 1.984375,1.984375 0 0 0 5.17e-4,-0.0134 1.984375,1.984375 0 0 0 0,-0.0134 1.984375,1.984375 0 0 0 5.16e-4,-0.0134 1.984375,1.984375 0 0 0 0,-0.014 1.984375,1.984375 0 0 0 0,-0.004 1.984375,1.984375 0 0 0 0,-0.005 1.984375,1.984375 0 0 0 0,-0.005 1.984375,1.984375 0 0 0 0,-0.005 1.984375,1.984375 0 0 0 0,-0.005 1.984375,1.984375 0 0 0 -5.16e-4,-0.005 1.984375,1.984375 0 0 0 0,-0.005 1.984375,1.984375 0 0 0 0,-0.005 1.984375,1.984375 0 0 0 0,-0.005 1.984375,1.984375 0 0 0 0,-0.005 1.984375,1.984375 0 0 0 0,-0.005 1.984375,1.984375 0 0 0 0,-0.005 1.984375,1.984375 0 0 0 -5.17e-4,-0.005 1.984375,1.984375 0 0 0 0,-0.005 1.984375,1.984375 0 0 0 0,-0.005 1.984375,1.984375 0 0 0 0,-0.005 1.984375,1.984375 0 0 0 -5.17e-4,-0.005 1.984375,1.984375 0 0 0 0,-0.005 1.984375,1.984375 0 0 0 0,-0.005 1.984375,1.984375 0 0 0 -5.17e-4,-0.004 1.984375,1.984375 0 0 0 0,-0.005 1.984375,1.984375 0 0 0 -0.0072,-0.0977 1.984375,1.984375 0 0 0 -0.01189,-0.0961 1.984375,1.984375 0 0 0 -0.01654,-0.0961 1.984375,1.984375 0 0 0 -0.0217,-0.0951 1.984375,1.984375 0 0 0 -0.02584,-0.0935 1.984375,1.984375 0 0 0 -0.03049,-0.0925 1.984375,1.984375 0 0 0 -0.03514,-0.0904 1.984375,1.984375 0 0 0 -0.03927,-0.0894 1.984375,1.984375 0 0 0 -0.04392,-0.0868 1.984375,1.984375 0 0 0 -0.04806,-0.0853 1.984375,1.984375 0 0 0 -0.05219,-0.0822 1.984375,1.984375 0 0 0 -0.05581,-0.0796 1.984375,1.984375 0 0 0 -0.05994,-0.077 1.984375,1.984375 0 0 0 -0.06356,-0.0739 1.984375,1.984375 0 0 0 -0.06718,-0.0703 1.984375,1.984375 0 0 0 -0.0708,-0.0677 1.984375,1.984375 0 0 0 -0.0739,-0.0636 1.984375,1.984375 0 0 0 -0.077,-0.0599 1.984375,1.984375 0 0 0 -0.07958,-0.0558 1.984375,1.984375 0 0 0 -0.08217,-0.0522 1.984375,1.984375 0 0 0 -0.08475,-0.0481 1.984375,1.984375 0 0 0 -0.08733,-0.0439 1.984375,1.984375 0 0 0 -0.08888,-0.0393 1.984375,1.984375 0 0 0 -0.09095,-0.0351 1.984375,1.984375 0 0 0 -0.0067,-0.003 v -3.41529 z m -3.440103,4.62452 a 0.66145831,0.66145831 0 0 1 0.0548,0.003 0.66145831,0.66145831 0 0 1 0.0548,0.007 0.66145831,0.66145831 0 0 1 0.0532,0.0103 0.66145831,0.66145831 0 0 1 0.0522,0.016 0.66145831,0.66145831 0 0 1 0.0517,0.0196 0.66145831,0.66145831 0 0 1 0.0491,0.0238 0.66145831,0.66145831 0 0 1 0.047,0.0284 0.66145831,0.66145831 0 0 1 0.0439,0.0315 0.66145831,0.66145831 0 0 1 0.04134,0.0351 0.66145831,0.66145831 0 0 1 0.03876,0.0388 0.66145831,0.66145831 0 0 1 0.03617,0.0419 0.66145831,0.66145831 0 0 1 0.03101,0.0444 0.66145831,0.66145831 0 0 1 0.02791,0.047 0.66145831,0.66145831 0 0 1 0.02429,0.0491 0.66145831,0.66145831 0 0 1 0.01964,0.0512 0.66145831,0.66145831 0 0 1 0.0155,0.0522 0.66145831,0.66145831 0 0 1 0.01137,0.0538 0.66145831,0.66145831 0 0 1 0.0072,0.0543 0.66145831,0.66145831 0 0 1 5.16e-4,0.005 0.66145831,0.66145831 0 0 1 0,0.005 0.66145831,0.66145831 0 0 1 5.17e-4,0.005 0.66145831,0.66145831 0 0 1 0,0.005 0.66145831,0.66145831 0 0 1 5.17e-4,0.005 0.66145831,0.66145831 0 0 1 0,0.004 0.66145831,0.66145831 0 0 1 0,0.005 0.66145831,0.66145831 0 0 1 5.17e-4,0.005 0.66145831,0.66145831 0 0 1 0,0.005 0.66145831,0.66145831 0 0 1 0,0.005 0.66145831,0.66145831 0 0 1 0,0.005 0.66145831,0.66145831 0 0 1 0,0.004 0.66145831,0.66145831 0 0 1 0,0.0124 0.66145831,0.66145831 0 0 1 -5.17e-4,0.0124 0.66145831,0.66145831 0 0 1 -5.17e-4,0.0124 0.66145831,0.66145831 0 0 1 -0.001,0.0124 0.66145831,0.66145831 0 0 1 -0.001,0.0124 0.66145831,0.66145831 0 0 1 -10e-4,0.0124 0.66145831,0.66145831 0 0 1 -0.0016,0.0124 0.66145831,0.66145831 0 0 1 -0.0015,0.0119 0.66145831,0.66145831 0 0 1 -0.0021,0.0124 0.66145831,0.66145831 0 0 1 -0.0021,0.0124 0.66145831,0.66145831 0 0 1 -0.0026,0.0119 0.66145831,0.66145831 0 0 1 -0.0026,0.0119 0.66145831,0.66145831 0 0 1 -0.04858,0.14004 0.66145831,0.66145831 0 0 1 -0.07906,0.12506 0.66145831,0.66145831 0 0 1 -0.104383,0.1049 0.66145831,0.66145831 0 0 1 -0.12558,0.078 0.66145831,0.66145831 0 0 1 -0.14004,0.0491 0.66145831,0.66145831 0 0 1 -0.14728,0.0165 0.66145831,0.66145831 0 0 1 -0.14676,-0.0165 0.66145831,0.66145831 0 0 1 -0.14004,-0.0491 0.66145831,0.66145831 0 0 1 -0.12558,-0.078 0.66145831,0.66145831 0 0 1 -0.10438,-0.1049 0.66145831,0.66145831 0 0 1 -0.0791,-0.12506 0.66145831,0.66145831 0 0 1 -0.0486,-0.14004 0.66145831,0.66145831 0 0 1 -0.0176,-0.14728 0.66145831,0.66145831 0 0 1 0.0176,-0.14728 0.66145831,0.66145831 0 0 1 0.0486,-0.13952 0.66145831,0.66145831 0 0 1 0.0791,-0.12558 0.66145831,0.66145831 0 0 1 0.10438,-0.1049 0.66145831,0.66145831 0 0 1 0.12558,-0.0791 0.66145831,0.66145831 0 0 1 0.14004,-0.0491 0.66145831,0.66145831 0 0 1 0.14676,-0.0165 z"
           style="fill:#000000;stroke:#ffffff;stroke-width:1.32291667;stroke-dasharray:none"
           id="path33" />
        <path
           d="m -93.656267,151.79081 v 1.32292 h 4.101039 v -1.32292 -3.7698 a 1.984375,1.984375 0 0 0 0.163298,-0.061 1.984375,1.984375 0 0 0 0.248564,-0.1354 1.984375,1.984375 0 0 0 0.226342,-0.17001 1.984375,1.984375 0 0 0 0.200505,-0.19999 1.984375,1.984375 0 0 0 0.169499,-0.22686 1.984375,1.984375 0 0 0 0.135392,-0.24856 1.984375,1.984375 0 0 0 0.09922,-0.2651 1.984375,1.984375 0 0 0 0.05994,-0.27647 1.984375,1.984375 0 0 0 0.0016,-0.0134 1.984375,1.984375 0 0 0 0.0021,-0.0134 1.984375,1.984375 0 0 0 0.0016,-0.0134 1.984375,1.984375 0 0 0 0.0016,-0.0134 1.984375,1.984375 0 0 0 0.0016,-0.0134 1.984375,1.984375 0 0 0 0.0015,-0.0134 1.984375,1.984375 0 0 0 0.001,-0.0134 1.984375,1.984375 0 0 0 0.0016,-0.0134 1.984375,1.984375 0 0 0 0.001,-0.0134 1.984375,1.984375 0 0 0 10e-4,-0.0134 1.984375,1.984375 0 0 0 0.001,-0.0134 1.984375,1.984375 0 0 0 0.001,-0.0134 1.984375,1.984375 0 0 0 5.17e-4,-0.0134 1.984375,1.984375 0 0 0 5.16e-4,-0.0134 1.984375,1.984375 0 0 0 0.001,-0.014 1.984375,1.984375 0 0 0 5.17e-4,-0.0134 1.984375,1.984375 0 0 0 0,-0.0134 1.984375,1.984375 0 0 0 5.16e-4,-0.0134 1.984375,1.984375 0 0 0 0,-0.0134 1.984375,1.984375 0 0 0 5.17e-4,-0.0134 1.984375,1.984375 0 0 0 0,-0.0134 1.984375,1.984375 0 0 0 0,-0.005 1.984375,1.984375 0 0 0 0,-0.005 1.984375,1.984375 0 0 0 0,-0.005 1.984375,1.984375 0 0 0 0,-0.005 1.984375,1.984375 0 0 0 0,-0.005 1.984375,1.984375 0 0 0 0,-0.005 1.984375,1.984375 0 0 0 0,-0.005 1.984375,1.984375 0 0 0 -5.17e-4,-0.005 1.984375,1.984375 0 0 0 0,-0.005 1.984375,1.984375 0 0 0 0,-0.005 1.984375,1.984375 0 0 0 0,-0.005 1.984375,1.984375 0 0 0 0,-0.005 1.984375,1.984375 0 0 0 0,-0.005 1.984375,1.984375 0 0 0 -5.16e-4,-0.005 1.984375,1.984375 0 0 0 0,-0.005 1.984375,1.984375 0 0 0 0,-0.005 1.984375,1.984375 0 0 0 -5.17e-4,-0.005 1.984375,1.984375 0 0 0 0,-0.005 1.984375,1.984375 0 0 0 0,-0.005 1.984375,1.984375 0 0 0 -5.17e-4,-0.004 1.984375,1.984375 0 0 0 0,-0.005 1.984375,1.984375 0 0 0 -0.0072,-0.0972 1.984375,1.984375 0 0 0 -0.01189,-0.0966 1.984375,1.984375 0 0 0 -0.01654,-0.0961 1.984375,1.984375 0 0 0 -0.0217,-0.0951 1.984375,1.984375 0 0 0 -0.02532,-0.093 1.984375,1.984375 0 0 0 -0.03049,-0.0925 1.984375,1.984375 0 0 0 -0.03514,-0.0909 1.984375,1.984375 0 0 0 -0.03927,-0.0894 1.984375,1.984375 0 0 0 -0.04393,-0.0868 1.984375,1.984375 0 0 0 -0.04806,-0.0848 1.984375,1.984375 0 0 0 -0.05219,-0.0827 1.984375,1.984375 0 0 0 -0.05581,-0.0796 1.984375,1.984375 0 0 0 -0.05994,-0.077 1.984375,1.984375 0 0 0 -0.06356,-0.0739 1.984375,1.984375 0 0 0 -0.0677,-0.0703 1.984375,1.984375 0 0 0 -0.0708,-0.0672 1.984375,1.984375 0 0 0 -0.0739,-0.0636 1.984375,1.984375 0 0 0 -0.077,-0.0599 1.984375,1.984375 0 0 0 -0.07958,-0.0563 1.984375,1.984375 0 0 0 -0.08217,-0.0517 1.984375,1.984375 0 0 0 -0.08475,-0.0481 1.984375,1.984375 0 0 0 -0.08682,-0.0439 1.984375,1.984375 0 0 0 -0.08888,-0.0393 1.984375,1.984375 0 0 0 -0.09147,-0.0351 1.984375,1.984375 0 0 0 -0.0925,-0.0305 1.984375,1.984375 0 0 0 -0.09354,-0.0264 1.984375,1.984375 0 0 0 -0.09508,-0.0212 1.984375,1.984375 0 0 0 -0.09612,-0.0165 1.984375,1.984375 0 0 0 -0.0956,-0.0119 1.984375,1.984375 0 0 0 -0.09715,-0.007 1.984375,1.984375 0 0 0 -0.09767,-0.003 l -0.001,5.1e-4 a 1.984375,1.984375 0 0 0 -0.282153,0.0202 1.984375,1.984375 0 0 0 -0.276469,0.0605 1.984375,1.984375 0 0 0 -0.265617,0.0987 1.984375,1.984375 0 0 0 -0.248563,0.13591 1.984375,1.984375 0 0 0 -0.226343,0.1695 1.984375,1.984375 0 0 0 -0.20051,0.2005 1.984375,1.984375 0 0 0 -0.16949,0.22635 1.984375,1.984375 0 0 0 -0.13591,0.24856 1.984375,1.984375 0 0 0 -0.0987,0.2651 1.984375,1.984375 0 0 0 -0.0594,0.27698 1.984375,1.984375 0 0 0 -0.0207,0.28216 1.984375,1.984375 0 0 0 0.0207,0.28267 1.984375,1.984375 0 0 0 0.0594,0.27647 1.984375,1.984375 0 0 0 0.0987,0.2651 1.984375,1.984375 0 0 0 0.13591,0.24856 1.984375,1.984375 0 0 0 0.16949,0.22686 1.984375,1.984375 0 0 0 0.20051,0.19999 1.984375,1.984375 0 0 0 0.226343,0.17001 1.984375,1.984375 0 0 0 0.248563,0.1354 1.984375,1.984375 0 0 0 0.162781,0.061 v 3.7698 z m 3.439064,-6.29729 a 0.66145831,0.66145831 0 0 1 0.05529,0.003 0.66145831,0.66145831 0 0 1 0.05426,0.007 0.66145831,0.66145831 0 0 1 0.05374,0.0109 0.66145831,0.66145831 0 0 1 0.05219,0.016 0.66145831,0.66145831 0 0 1 0.05116,0.0196 0.66145831,0.66145831 0 0 1 0.04909,0.0238 0.66145831,0.66145831 0 0 1 0.04703,0.0284 0.66145831,0.66145831 0 0 1 0.04393,0.0315 0.66145831,0.66145831 0 0 1 0.04186,0.0346 0.66145831,0.66145831 0 0 1 0.03824,0.0393 0.66145831,0.66145831 0 0 1 0.03617,0.0419 0.66145831,0.66145831 0 0 1 0.03152,0.045 0.66145831,0.66145831 0 0 1 0.02791,0.0465 0.66145831,0.66145831 0 0 1 0.02429,0.0491 0.66145831,0.66145831 0 0 1 0.01912,0.0517 0.66145831,0.66145831 0 0 1 0.0155,0.0522 0.66145831,0.66145831 0 0 1 0.01188,0.0532 0.66145831,0.66145831 0 0 1 0.0067,0.0548 0.66145831,0.66145831 0 0 1 5.17e-4,0.004 0.66145831,0.66145831 0 0 1 0,0.005 0.66145831,0.66145831 0 0 1 5.17e-4,0.005 0.66145831,0.66145831 0 0 1 0,0.005 0.66145831,0.66145831 0 0 1 5.17e-4,0.004 0.66145831,0.66145831 0 0 1 0,0.005 0.66145831,0.66145831 0 0 1 0,0.005 0.66145831,0.66145831 0 0 1 5.16e-4,0.005 0.66145831,0.66145831 0 0 1 0,0.005 0.66145831,0.66145831 0 0 1 0,0.004 0.66145831,0.66145831 0 0 1 0,0.005 0.66145831,0.66145831 0 0 1 0,0.005 0.66145831,0.66145831 0 0 1 0,0.0124 0.66145831,0.66145831 0 0 1 -5.16e-4,0.0124 0.66145831,0.66145831 0 0 1 -5.17e-4,0.0124 0.66145831,0.66145831 0 0 1 -10e-4,0.0124 0.66145831,0.66145831 0 0 1 -0.001,0.0119 0.66145831,0.66145831 0 0 1 -0.001,0.0124 0.66145831,0.66145831 0 0 1 -0.0015,0.0124 0.66145831,0.66145831 0 0 1 -0.0016,0.0124 0.66145831,0.66145831 0 0 1 -0.0021,0.0119 0.66145831,0.66145831 0 0 1 -0.0021,0.0124 0.66145831,0.66145831 0 0 1 -0.0026,0.0119 0.66145831,0.66145831 0 0 1 -0.0026,0.0124 0.66145831,0.66145831 0 0 1 -0.04858,0.14004 0.66145831,0.66145831 0 0 1 -0.07906,0.12506 0.66145831,0.66145831 0 0 1 -0.104386,0.1049 0.66145831,0.66145831 0 0 1 -0.125574,0.0786 0.66145831,0.66145831 0 0 1 -0.140043,0.0491 0.66145831,0.66145831 0 0 1 -0.147278,0.016 0.66145831,0.66145831 0 0 1 -0.146761,-0.016 0.66145831,0.66145831 0 0 1 -0.140043,-0.0491 0.66145831,0.66145831 0 0 1 -0.125574,-0.0786 0.66145831,0.66145831 0 0 1 -0.104386,-0.1049 0.66145831,0.66145831 0 0 1 -0.07906,-0.12506 0.66145831,0.66145831 0 0 1 -0.04858,-0.14004 0.66145831,0.66145831 0 0 1 -0.01757,-0.14728 0.66145831,0.66145831 0 0 1 0.01757,-0.14728 0.66145831,0.66145831 0 0 1 0.04858,-0.13953 0.66145831,0.66145831 0 0 1 0.07906,-0.12557 0.66145831,0.66145831 0 0 1 0.104386,-0.1049 0.66145831,0.66145831 0 0 1 0.125574,-0.0785 0.66145831,0.66145831 0 0 1 0.140043,-0.0491 0.66145831,0.66145831 0 0 1 0.146761,-0.0165 z"
           style="fill:#000000;stroke:#ffffff;stroke-width:1.32291667;stroke-dasharray:none"
           id="path34" />
      </g>
      <g
         id="g23"
         transform="translate(224.76124,-8.28211)">
        <g
           id="g12"
           transform="translate(-3.9121204,-3.2376174)">
          <g
             id="g11">
            <path
               id="path5"
               style="fill:#0e3146;fill-opacity:1;stroke-width:2.92449"
               d="m -66.853753,135.6101 v 15.875 c 2.198686,0 3.96875,-1.77006 3.96875,-3.96875 v -7.9375 c 0,-2.19868 -1.770064,-3.96875 -3.96875,-3.96875 z" />
            <g
               id="g10"
               transform="translate(-65.230655,15.406445)"
               style="opacity:1">
              <path
                 id="path6"
                 style="opacity:1;fill:#2a99c9;fill-opacity:1;stroke-width:1.97337"
                 d="m -19.738072,104.3294 a 5.953125,5.9875879 0 0 0 -1.26866,0.33796 5.953125,5.9875879 0 0 0 -1.16479,0.60927 5.953125,5.9875879 0 0 0 -1.00355,0.85111 5.953125,5.9875879 0 0 0 -0.79324,1.05161 5.953125,5.9875879 0 0 0 -0.54518,1.20096 v 39.88697 a 5.2916665,5.2916665 0 0 0 0.22169,0.59377 5.2916665,5.2916665 0 0 0 0.36173,0.66249 5.2916665,5.2916665 0 0 0 0.45217,0.60461 5.2916665,5.2916665 0 0 0 0.53382,0.53382 5.2916665,5.2916665 0 0 0 0.60462,0.45217 5.2916665,5.2916665 0 0 0 0.66249,0.36173 5.2916665,5.2916665 0 0 0 0.70745,0.26407 5.2916665,5.2916665 0 0 0 0.73587,0.1602 7.9375,7.9375 0 0 0 0.75499,0.0543 7.9375,7.9375 0 0 0 0.755,-0.0543 7.9375,7.9375 0 0 0 0.37465,-0.0269 7.9375,7.9375 0 0 0 1.10691,-0.24029 7.9375,7.9375 0 0 0 1.06092,-0.39584 7.9375,7.9375 0 0 0 0.99373,-0.54312 7.9375,7.9375 0 0 0 0.90692,-0.67851 7.9375,7.9375 0 0 0 0.80047,-0.80099 7.9375,7.9375 0 0 0 0.67903,-0.9064 7.9375,7.9375 0 0 0 0.5426,-0.99374 7.9375,7.9375 0 0 0 0.39584,-1.06143 7.9375,7.9375 0 0 0 0.24082,-1.1064 7.9375,7.9375 0 0 0 0.006,-0.0413 7.9375,7.9375 0 0 0 0.006,-0.0419 7.9375,7.9375 0 0 0 0.006,-0.0418 7.9375,7.9375 0 0 0 0.005,-0.0413 7.9375,7.9375 0 0 0 0.005,-0.0419 7.9375,7.9375 0 0 0 0.005,-0.0413 7.9375,7.9375 0 0 0 0.004,-0.0419 7.9375,7.9375 0 0 0 0.005,-0.0419 7.9375,7.9375 0 0 0 0.004,-0.0419 7.9375,7.9375 0 0 0 0.004,-0.0419 7.9375,7.9375 0 0 0 0.004,-0.0419 7.9375,7.9375 0 0 0 0.004,-0.0419 7.9375,7.9375 0 0 0 0.003,-0.0419 7.9375,7.9375 0 0 0 0.003,-0.0419 7.9375,7.9375 0 0 0 0.003,-0.0418 7.9375,7.9375 0 0 0 0.003,-0.0419 7.9375,7.9375 0 0 0 0.003,-0.0419 7.9375,7.9375 0 0 0 0.002,-0.0419 7.9375,7.9375 0 0 0 0.002,-0.0419 7.9375,7.9375 0 0 0 0.002,-0.0419 7.9375,7.9375 0 0 0 10e-4,-0.0424 7.9375,7.9375 0 0 0 0.002,-0.0419 7.9375,7.9375 0 0 0 10e-4,-0.0419 7.9375,7.9375 0 0 0 5.2e-4,-0.0419 7.9375,7.9375 0 0 0 5.2e-4,-0.0424 7.9375,7.9375 0 0 0 5.1e-4,-0.0419 7.9375,7.9375 0 0 0 0,-0.0419 7.9375,7.9375 0 0 0 0,-0.004 7.9375,7.9375 0 0 0 0,-0.004 7.9375,7.9375 0 0 0 0,-0.004 7.9375,7.9375 0 0 0 0,-0.004 7.9375,7.9375 0 0 0 0,-0.004 7.9375,7.9375 0 0 0 0,-0.004 7.9375,7.9375 0 0 0 0,-0.004 7.9375,7.9375 0 0 0 0,-0.004 7.9375,7.9375 0 0 0 0,-0.004 7.9375,7.9375 0 0 0 0,-0.004 7.9375,7.9375 0 0 0 0,-0.004 7.9375,7.9375 0 0 0 0,-0.004 7.9375,7.9375 0 0 0 0,-0.004 7.9375,7.9375 0 0 0 0,-0.004 7.9375,7.9375 0 0 0 0,-0.004 7.9375,7.9375 0 0 0 0,-0.004 7.9375,7.9375 0 0 0 0,-0.004 7.9375,7.9375 0 0 0 0,-0.004 7.9375,7.9375 0 0 0 0,-0.004 7.9375,7.9375 0 0 0 0,-0.004 7.9375,7.9375 0 0 0 0,-0.004 7.9375,7.9375 0 0 0 -5.1e-4,-0.004 7.9375,7.9375 0 0 0 0,-0.004 7.9375,7.9375 0 0 0 0,-0.004 7.9375,7.9375 0 0 0 0,-0.004 7.9375,7.9375 0 0 0 0,-0.004 7.9375,7.9375 0 0 0 0,-0.004 7.9375,7.9375 0 0 0 0,-0.004 7.9375,7.9375 0 0 0 0.93379,0.0667 7.9375,7.9375 0 0 0 1.5203196,-0.14831 7.9375,7.9375 0 0 0 1.46348,-0.43718 7.9375,7.9375 0 0 0 1.35288,-0.70952 7.9375,7.9375 0 0 0 1.19218,-0.95498 7.9375,7.9375 0 0 0 0.98702,-1.16633 7.9375,7.9375 0 0 0 0.74517,-1.33326 v -19.94555 a 13.229167,13.229167 0 0 0 -1.31981,-1.13533 13.229167,13.229167 0 0 0 -1.45676,-0.9524 13.229167,13.229167 0 0 0 -1.56993,-0.75292 6.6145835,6.6145835 0 0 0 0.25786,-1.02681 6.6145835,6.6145835 0 0 0 0.091,-1.05472 6.6145835,6.6145835 0 0 0 -0.20464,-1.63091 6.6145835,6.6145835 0 0 0 -0.60048,-1.53014 6.6145835,6.6145835 0 0 0 -0.95963,-1.3348 6.6145835,6.6145835 0 0 0 -1.2583296,-1.0573 6.6145835,6.6145835 0 0 0 -1.481041,-0.71365 6.6145835,6.6145835 0 0 0 -1.61076,-0.32711 5.953125,5.9875879 0 0 0 -0.77411,-1.26194 5.953125,5.9875879 0 0 0 -1.05885,-1.03146 5.953125,5.9875879 0 0 0 -1.27847,-0.73846 5.953125,5.9875879 0 0 0 -1.41956,-0.39997 z" />
              <g
                 id="g9"
                 style="fill:#ffffff"
                 transform="translate(-169.88398,-9.3000529)">
                <g
                   id="g8"
                   style="fill:#ffffff">
                  <path
                     id="path7"
                     style="opacity:1;fill:#ffffff;fill-opacity:1;stroke-width:2.23875"
                     d="m 153.6609,118.01037 a 1.984375,1.984375 0 0 0 -1.98437,1.98437 1.984375,1.984375 0 0 0 1.32292,1.86552 v 5.40949 l -4.78111,4.7811 -0.20515,0.20516 v 1.61024 3.74085 h 1.32291 v -4.80332 l 4.88704,-4.88704 0.0992,-0.0992 v -0.73794 -5.21363 a 1.984375,1.984375 0 0 0 1.32292,-1.87121 1.984375,1.984375 0 0 0 -1.98438,-1.98437 z m 0,1.32291 a 0.66145831,0.66145831 0 0 1 0.66146,0.66146 0.66145831,0.66145831 0 0 1 -0.66146,0.66146 0.66145831,0.66145831 0 0 1 -0.66145,-0.66146 0.66145831,0.66145831 0 0 1 0.66145,-0.66146 z" />
                  <path
                     id="path8"
                     style="opacity:1;fill:#ffffff;fill-opacity:1;stroke-width:2.57602"
                     d="m 148.18889,117.35253 v 6.86728 a 1.984375,1.984375 0 0 0 -1.32292,1.86552 1.984375,1.984375 0 0 0 1.98438,1.98437 1.984375,1.984375 0 0 0 1.98437,-1.98437 1.984375,1.984375 0 0 0 -1.32292,-1.86552 v -6.86728 z m 0.66146,8.07134 a 0.66145831,0.66145831 0 0 1 0.66145,0.66146 0.66145831,0.66145831 0 0 1 -0.66145,0.66146 0.66145831,0.66145831 0 0 1 -0.66146,-0.66146 0.66145831,0.66145831 0 0 1 0.66146,-0.66146 z" />
                </g>
                <circle
                   style="opacity:1;fill:#ffffff;fill-opacity:1;stroke-width:2.1887"
                   id="circle8"
                   cx="155.42859"
                   cy="137.97116"
                   r="3.7041667" />
              </g>
            </g>
            <path
               d="m -70.17384,133.17008 a 13.229167,13.229167 0 0 1 0.294556,0.19275 13.229167,13.229167 0 0 1 1.292944,1.11208 v -8.32869 a 2.6458333,2.6458333 0 0 0 0.746208,-0.37259 2.6458333,2.6458333 0 0 0 0.592729,-0.58601 2.6458333,2.6458333 0 0 0 0.381372,-0.74156 2.6458333,2.6458333 0 0 0 0.131775,-0.8232 2.6458333,2.6458333 0 0 0 -0.201538,-1.01286 2.6458333,2.6458333 0 0 0 -0.573609,-0.85835 2.6458333,2.6458333 0 0 0 -0.858345,-0.57361 2.6458333,2.6458333 0 0 0 -1.012342,-0.20102 2.6458333,2.6458333 0 0 0 -1.012341,0.20102 2.6458333,2.6458333 0 0 0 -0.858346,0.57361 2.6458333,2.6458333 0 0 0 -0.573608,0.85835 2.6458333,2.6458333 0 0 0 -0.201538,1.01286 2.6458333,2.6458333 0 0 0 0.132292,0.82217 2.6458333,2.6458333 0 0 0 0.381372,0.74104 2.6458333,2.6458333 0 0 0 0.592728,0.58549 2.6458333,2.6458333 0 0 0 0.745691,0.37207 z m 0.79375,-10.60556 a 1.0583333,1.0583333 0 0 1 0.529167,0.1416 1.0583333,1.0583333 0 0 1 0.387573,0.38757 1.0583333,1.0583333 0 0 1 0.141594,0.52917 1.0583333,1.0583333 0 0 1 -0.02015,0.20619 1.0583333,1.0583333 0 0 1 -0.06046,0.19843 1.0583333,1.0583333 0 0 1 -0.09767,0.18294 1.0583333,1.0583333 0 0 1 -0.131775,0.16071 1.0583333,1.0583333 0 0 1 -0.160197,0.13126 1.0583333,1.0583333 0 0 1 -0.182934,0.0982 1.0583333,1.0583333 0 0 1 -0.198955,0.0599 1.0583333,1.0583333 0 0 1 -0.206189,0.0207 1.0583333,1.0583333 0 0 1 -0.529166,-0.14211 1.0583333,1.0583333 0 0 1 -0.387574,-0.38706 1.0583333,1.0583333 0 0 1 -0.141593,-0.52916 1.0583333,1.0583333 0 0 1 0.141593,-0.52917 1.0583333,1.0583333 0 0 1 0.387574,-0.38757 1.0583333,1.0583333 0 0 1 0.529166,-0.1416 z"
               style="opacity:1;fill:#0e3146;fill-opacity:1;stroke-width:1.84639"
               id="path10" />
          </g>
        </g>
        <path
           id="path12"
           style="fill:#ffffff;stroke-width:1.91009"
           d="m -76.659631,148.22329 a 1.984375,1.984375 0 0 0 -0.28216,0.0207 1.984375,1.984375 0 0 0 -0.27647,0.0605 1.984375,1.984375 0 0 0 -0.26561,0.0987 1.984375,1.984375 0 0 0 -0.24857,0.13591 1.984375,1.984375 0 0 0 -0.22634,0.1695 1.984375,1.984375 0 0 0 -0.2005,0.2005 1.984375,1.984375 0 0 0 -0.1695,0.22635 1.984375,1.984375 0 0 0 -0.13591,0.24856 1.984375,1.984375 0 0 0 -0.0605,0.16278 h -6.06682 v 1.32292 8.0672 h -6.61458 v 1.32292 h 6.61458 v 0.0367 h 1.32292 v -9.42681 h 4.7439 a 1.984375,1.984375 0 0 0 0.0605,0.16278 1.984375,1.984375 0 0 0 0.13591,0.24856 1.984375,1.984375 0 0 0 0.1695,0.22686 1.984375,1.984375 0 0 0 0.2005,0.19999 1.984375,1.984375 0 0 0 0.22634,0.17001 1.984375,1.984375 0 0 0 0.24857,0.1354 1.984375,1.984375 0 0 0 0.26561,0.0992 1.984375,1.984375 0 0 0 0.27647,0.0599 1.984375,1.984375 0 0 0 0.28216,0.0202 1.984375,1.984375 0 0 0 0.28267,-0.0202 1.984375,1.984375 0 0 0 0.27647,-0.0599 1.984375,1.984375 0 0 0 0.26561,-0.0992 1.984375,1.984375 0 0 0 0.24857,-0.1354 1.984375,1.984375 0 0 0 0.22634,-0.17001 1.984375,1.984375 0 0 0 0.2005,-0.19999 1.984375,1.984375 0 0 0 0.1695,-0.22686 1.984375,1.984375 0 0 0 0.13539,-0.24856 1.984375,1.984375 0 0 0 0.0987,-0.2651 1.984375,1.984375 0 0 0 0.0605,-0.27647 1.984375,1.984375 0 0 0 0.0196,-0.28267 1.984375,1.984375 0 0 0 -0.002,-0.0971 1.984375,1.984375 0 0 0 -0.007,-0.0972 1.984375,1.984375 0 0 0 -0.0119,-0.0966 1.984375,1.984375 0 0 0 -0.0165,-0.0961 1.984375,1.984375 0 0 0 -0.0217,-0.0951 1.984375,1.984375 0 0 0 -0.0258,-0.0935 1.984375,1.984375 0 0 0 -0.0305,-0.0925 1.984375,1.984375 0 0 0 -0.0351,-0.091 1.984375,1.984375 0 0 0 -0.0393,-0.0894 1.984375,1.984375 0 0 0 -0.0439,-0.0868 1.984375,1.984375 0 0 0 -0.0481,-0.0847 1.984375,1.984375 0 0 0 -0.0522,-0.0822 1.984375,1.984375 0 0 0 -0.0558,-0.0796 1.984375,1.984375 0 0 0 -0.0599,-0.077 1.984375,1.984375 0 0 0 -0.0636,-0.0739 1.984375,1.984375 0 0 0 -0.0672,-0.0703 1.984375,1.984375 0 0 0 -0.0708,-0.0672 1.984375,1.984375 0 0 0 -0.0734,-0.0636 1.984375,1.984375 0 0 0 -0.077,-0.0599 1.984375,1.984375 0 0 0 -0.0796,-0.0563 1.984375,1.984375 0 0 0 -0.0822,-0.0517 1.984375,1.984375 0 0 0 -0.0847,-0.0481 1.984375,1.984375 0 0 0 -0.0873,-0.0439 1.984375,1.984375 0 0 0 -0.0889,-0.0393 1.984375,1.984375 0 0 0 -0.091,-0.0351 1.984375,1.984375 0 0 0 -0.0925,-0.0305 1.984375,1.984375 0 0 0 -0.0935,-0.0264 1.984375,1.984375 0 0 0 -0.0951,-0.0212 1.984375,1.984375 0 0 0 -0.0961,-0.0165 1.984375,1.984375 0 0 0 -0.0966,-0.0119 1.984375,1.984375 0 0 0 -0.0972,-0.007 1.984375,1.984375 0 0 0 -0.0977,-0.003 z m 0,1.32291 a 0.66145831,0.66145831 0 0 1 0.0548,0.003 0.66145831,0.66145831 0 0 1 0.0543,0.007 0.66145831,0.66145831 0 0 1 0.0537,0.0109 0.66145831,0.66145831 0 0 1 0.0522,0.016 0.66145831,0.66145831 0 0 1 0.0512,0.0196 0.66145831,0.66145831 0 0 1 0.0491,0.0238 0.66145831,0.66145831 0 0 1 0.047,0.0284 0.66145831,0.66145831 0 0 1 0.0444,0.0315 0.66145831,0.66145831 0 0 1 0.0413,0.0351 0.66145831,0.66145831 0 0 1 0.0388,0.0388 0.66145831,0.66145831 0 0 1 0.0357,0.0419 0.66145831,0.66145831 0 0 1 0.0315,0.0444 0.66145831,0.66145831 0 0 1 0.0279,0.047 0.66145831,0.66145831 0 0 1 0.0243,0.0491 0.66145831,0.66145831 0 0 1 0.0196,0.0512 0.66145831,0.66145831 0 0 1 0.0155,0.0522 0.66145831,0.66145831 0 0 1 0.0114,0.0537 0.66145831,0.66145831 0 0 1 0.007,0.0543 0.66145831,0.66145831 0 0 1 0.002,0.0543 0.66145831,0.66145831 0 0 1 -0.0165,0.14728 0.66145831,0.66145831 0 0 1 -0.0486,0.14005 0.66145831,0.66145831 0 0 1 -0.0791,0.12505 0.66145831,0.66145831 0 0 1 -0.10439,0.10491 0.66145831,0.66145831 0 0 1 -0.12557,0.0785 0.66145831,0.66145831 0 0 1 -0.14005,0.0491 0.66145831,0.66145831 0 0 1 -0.14727,0.0165 0.66145831,0.66145831 0 0 1 -0.14676,-0.0165 0.66145831,0.66145831 0 0 1 -0.14005,-0.0491 0.66145831,0.66145831 0 0 1 -0.12557,-0.0785 0.66145831,0.66145831 0 0 1 -0.10439,-0.10491 0.66145831,0.66145831 0 0 1 -0.0791,-0.12505 0.66145831,0.66145831 0 0 1 -0.0486,-0.14005 0.66145831,0.66145831 0 0 1 -0.017,-0.14728 0.66145831,0.66145831 0 0 1 0.017,-0.14727 0.66145831,0.66145831 0 0 1 0.0486,-0.13953 0.66145831,0.66145831 0 0 1 0.0791,-0.12557 0.66145831,0.66145831 0 0 1 0.10439,-0.10491 0.66145831,0.66145831 0 0 1 0.12557,-0.0785 0.66145831,0.66145831 0 0 1 0.14005,-0.0491 0.66145831,0.66145831 0 0 1 0.14676,-0.0165 z" />
        <path
           id="path13"
           style="fill:#ffffff;stroke-width:1.91009"
           d="m -80.599441,125.54818 a 1.984375,1.984375 0 0 0 -0.28216,0.0202 1.984375,1.984375 0 0 0 -0.27647,0.0605 1.984375,1.984375 0 0 0 -0.26561,0.0987 1.984375,1.984375 0 0 0 -0.24857,0.13591 1.984375,1.984375 0 0 0 -0.22634,0.1695 1.984375,1.984375 0 0 0 -0.2005,0.2005 1.984375,1.984375 0 0 0 -0.1695,0.22635 1.984375,1.984375 0 0 0 -0.13591,0.24856 1.984375,1.984375 0 0 0 -0.0987,0.2651 1.984375,1.984375 0 0 0 -0.0599,0.27699 1.984375,1.984375 0 0 0 -0.0207,0.28215 1.984375,1.984375 0 0 0 0.0207,0.28267 1.984375,1.984375 0 0 0 0.0599,0.27647 1.984375,1.984375 0 0 0 0.0987,0.2651 1.984375,1.984375 0 0 0 0.13591,0.24856 1.984375,1.984375 0 0 0 0.1695,0.22686 1.984375,1.984375 0 0 0 0.2005,0.19999 1.984375,1.984375 0 0 0 0.22634,0.17002 1.984375,1.984375 0 0 0 0.24857,0.13539 1.984375,1.984375 0 0 0 0.16278,0.061 v 4.99607 h -0.0253 v 1.32292 h 4.23333 v 1.29656 a 1.3229166,1.3229166 0 0 0 -0.66146,1.14567 1.3229166,1.3229166 0 0 0 1.32292,1.32291 1.3229166,1.3229166 0 0 0 1.32291,-1.32291 1.3229166,1.3229166 0 0 0 -0.66145,-1.14412 v -1.29811 -1.32292 h -1.32292 -2.8851 v -4.99607 a 1.984375,1.984375 0 0 0 0.1633,-0.061 1.984375,1.984375 0 0 0 0.24856,-0.13539 1.984375,1.984375 0 0 0 0.22635,-0.17002 1.984375,1.984375 0 0 0 0.2005,-0.19999 1.984375,1.984375 0 0 0 0.1695,-0.22686 1.984375,1.984375 0 0 0 0.13539,-0.24856 1.984375,1.984375 0 0 0 0.0992,-0.2651 1.984375,1.984375 0 0 0 0.06,-0.27647 1.984375,1.984375 0 0 0 0.0202,-0.28267 1.984375,1.984375 0 0 0 -0.002,-0.0972 1.984375,1.984375 0 0 0 -0.007,-0.0971 1.984375,1.984375 0 0 0 -0.0119,-0.0966 1.984375,1.984375 0 0 0 -0.0165,-0.0961 1.984375,1.984375 0 0 0 -0.0217,-0.0951 1.984375,1.984375 0 0 0 -0.0258,-0.0935 1.984375,1.984375 0 0 0 -0.0305,-0.0925 1.984375,1.984375 0 0 0 -0.0351,-0.091 1.984375,1.984375 0 0 0 -0.0393,-0.0894 1.984375,1.984375 0 0 0 -0.0439,-0.0868 1.984375,1.984375 0 0 0 -0.0481,-0.0847 1.984375,1.984375 0 0 0 -0.0522,-0.0822 1.984375,1.984375 0 0 0 -0.0558,-0.0796 1.984375,1.984375 0 0 0 -0.0599,-0.077 1.984375,1.984375 0 0 0 -0.0636,-0.0739 1.984375,1.984375 0 0 0 -0.0672,-0.0703 1.984375,1.984375 0 0 0 -0.0708,-0.0672 1.984375,1.984375 0 0 0 -0.0734,-0.0636 1.984375,1.984375 0 0 0 -0.077,-0.0599 1.984375,1.984375 0 0 0 -0.0796,-0.0563 1.984375,1.984375 0 0 0 -0.0822,-0.0517 1.984375,1.984375 0 0 0 -0.0847,-0.0481 1.984375,1.984375 0 0 0 -0.0873,-0.0439 1.984375,1.984375 0 0 0 -0.0889,-0.0393 1.984375,1.984375 0 0 0 -0.091,-0.0351 1.984375,1.984375 0 0 0 -0.0925,-0.0305 1.984375,1.984375 0 0 0 -0.0935,-0.0264 1.984375,1.984375 0 0 0 -0.0951,-0.0212 1.984375,1.984375 0 0 0 -0.0961,-0.0165 1.984375,1.984375 0 0 0 -0.0966,-0.0119 1.984375,1.984375 0 0 0 -0.0971,-0.007 1.984375,1.984375 0 0 0 -0.0977,-0.003 z m 0,1.32292 a 0.66145831,0.66145831 0 0 1 0.0548,0.003 0.66145831,0.66145831 0 0 1 0.0543,0.007 0.66145831,0.66145831 0 0 1 0.0543,0.0108 0.66145831,0.66145831 0 0 1 0.0522,0.016 0.66145831,0.66145831 0 0 1 0.0512,0.0196 0.66145831,0.66145831 0 0 1 0.0491,0.0238 0.66145831,0.66145831 0 0 1 0.047,0.0284 0.66145831,0.66145831 0 0 1 0.0444,0.0315 0.66145831,0.66145831 0 0 1 0.0408,0.0351 0.66145831,0.66145831 0 0 1 0.0393,0.0388 0.66145831,0.66145831 0 0 1 0.0357,0.0419 0.66145831,0.66145831 0 0 1 0.0315,0.0444 0.66145831,0.66145831 0 0 1 0.0279,0.047 0.66145831,0.66145831 0 0 1 0.0243,0.0491 0.66145831,0.66145831 0 0 1 0.0196,0.0512 0.66145831,0.66145831 0 0 1 0.0155,0.0522 0.66145831,0.66145831 0 0 1 0.0114,0.0538 0.66145831,0.66145831 0 0 1 0.007,0.0543 0.66145831,0.66145831 0 0 1 0.002,0.0543 0.66145831,0.66145831 0 0 1 -0.0165,0.14727 0.66145831,0.66145831 0 0 1 -0.0486,0.14005 0.66145831,0.66145831 0 0 1 -0.0791,0.12505 0.66145831,0.66145831 0 0 1 -0.10438,0.10491 0.66145831,0.66145831 0 0 1 -0.12558,0.0785 0.66145831,0.66145831 0 0 1 -0.14004,0.0491 0.66145831,0.66145831 0 0 1 -0.14728,0.0165 0.66145831,0.66145831 0 0 1 -0.14676,-0.0165 0.66145831,0.66145831 0 0 1 -0.14004,-0.0491 0.66145831,0.66145831 0 0 1 -0.12558,-0.0785 0.66145831,0.66145831 0 0 1 -0.10438,-0.10491 0.66145831,0.66145831 0 0 1 -0.0791,-0.12505 0.66145831,0.66145831 0 0 1 -0.0486,-0.14005 0.66145831,0.66145831 0 0 1 -0.0171,-0.14727 0.66145831,0.66145831 0 0 1 0.0171,-0.14728 0.66145831,0.66145831 0 0 1 0.0486,-0.13953 0.66145831,0.66145831 0 0 1 0.0791,-0.12557 0.66145831,0.66145831 0 0 1 0.10438,-0.1049 0.66145831,0.66145831 0 0 1 0.12558,-0.0786 0.66145831,0.66145831 0 0 1 0.14004,-0.0491 0.66145831,0.66145831 0 0 1 0.14676,-0.0165 z" />
        <g
           id="g22">
          <g
             id="g20"
             transform="matrix(-1,0,0,1,-186.57541,-3.2376173)">
            <path
               id="path14"
               style="fill:#0e3146;fill-opacity:1;stroke-width:2.92449"
               d="m -66.853753,135.6101 v 15.875 c 2.198686,0 3.96875,-1.77006 3.96875,-3.96875 v -7.9375 c 0,-2.19868 -1.770064,-3.96875 -3.96875,-3.96875 z" />
            <g
               id="g19"
               transform="translate(-65.230655,15.406445)"
               style="opacity:1">
              <path
                 id="path15"
                 style="opacity:1;fill:#e9691e;fill-opacity:1;stroke-width:1.97337"
                 d="m -19.738072,104.3294 a 5.953125,5.9875879 0 0 0 -1.26866,0.33796 5.953125,5.9875879 0 0 0 -1.16479,0.60927 5.953125,5.9875879 0 0 0 -1.00355,0.85111 5.953125,5.9875879 0 0 0 -0.79324,1.05161 5.953125,5.9875879 0 0 0 -0.54518,1.20096 v 39.88697 a 5.2916665,5.2916665 0 0 0 0.22169,0.59377 5.2916665,5.2916665 0 0 0 0.36173,0.66249 5.2916665,5.2916665 0 0 0 0.45217,0.60461 5.2916665,5.2916665 0 0 0 0.53382,0.53382 5.2916665,5.2916665 0 0 0 0.60462,0.45217 5.2916665,5.2916665 0 0 0 0.66249,0.36173 5.2916665,5.2916665 0 0 0 0.70745,0.26407 5.2916665,5.2916665 0 0 0 0.73587,0.1602 7.9375,7.9375 0 0 0 0.75499,0.0543 7.9375,7.9375 0 0 0 0.755,-0.0543 7.9375,7.9375 0 0 0 0.37465,-0.0269 7.9375,7.9375 0 0 0 1.10691,-0.24029 7.9375,7.9375 0 0 0 1.06092,-0.39584 7.9375,7.9375 0 0 0 0.99373,-0.54312 7.9375,7.9375 0 0 0 0.90692,-0.67851 7.9375,7.9375 0 0 0 0.80047,-0.80099 7.9375,7.9375 0 0 0 0.67903,-0.9064 7.9375,7.9375 0 0 0 0.5426,-0.99374 7.9375,7.9375 0 0 0 0.39584,-1.06143 7.9375,7.9375 0 0 0 0.24082,-1.1064 7.9375,7.9375 0 0 0 0.006,-0.0413 7.9375,7.9375 0 0 0 0.006,-0.0419 7.9375,7.9375 0 0 0 0.006,-0.0418 7.9375,7.9375 0 0 0 0.005,-0.0413 7.9375,7.9375 0 0 0 0.005,-0.0419 7.9375,7.9375 0 0 0 0.005,-0.0413 7.9375,7.9375 0 0 0 0.004,-0.0419 7.9375,7.9375 0 0 0 0.005,-0.0419 7.9375,7.9375 0 0 0 0.004,-0.0419 7.9375,7.9375 0 0 0 0.004,-0.0419 7.9375,7.9375 0 0 0 0.004,-0.0419 7.9375,7.9375 0 0 0 0.004,-0.0419 7.9375,7.9375 0 0 0 0.003,-0.0419 7.9375,7.9375 0 0 0 0.003,-0.0419 7.9375,7.9375 0 0 0 0.003,-0.0418 7.9375,7.9375 0 0 0 0.003,-0.0419 7.9375,7.9375 0 0 0 0.003,-0.0419 7.9375,7.9375 0 0 0 0.002,-0.0419 7.9375,7.9375 0 0 0 0.002,-0.0419 7.9375,7.9375 0 0 0 0.002,-0.0419 7.9375,7.9375 0 0 0 10e-4,-0.0424 7.9375,7.9375 0 0 0 0.002,-0.0419 7.9375,7.9375 0 0 0 10e-4,-0.0419 7.9375,7.9375 0 0 0 5.2e-4,-0.0419 7.9375,7.9375 0 0 0 5.2e-4,-0.0424 7.9375,7.9375 0 0 0 5.1e-4,-0.0419 7.9375,7.9375 0 0 0 0,-0.0419 7.9375,7.9375 0 0 0 0,-0.004 7.9375,7.9375 0 0 0 0,-0.004 7.9375,7.9375 0 0 0 0,-0.004 7.9375,7.9375 0 0 0 0,-0.004 7.9375,7.9375 0 0 0 0,-0.004 7.9375,7.9375 0 0 0 0,-0.004 7.9375,7.9375 0 0 0 0,-0.004 7.9375,7.9375 0 0 0 0,-0.004 7.9375,7.9375 0 0 0 0,-0.004 7.9375,7.9375 0 0 0 0,-0.004 7.9375,7.9375 0 0 0 0,-0.004 7.9375,7.9375 0 0 0 0,-0.004 7.9375,7.9375 0 0 0 0,-0.004 7.9375,7.9375 0 0 0 0,-0.004 7.9375,7.9375 0 0 0 0,-0.004 7.9375,7.9375 0 0 0 0,-0.004 7.9375,7.9375 0 0 0 0,-0.004 7.9375,7.9375 0 0 0 0,-0.004 7.9375,7.9375 0 0 0 0,-0.004 7.9375,7.9375 0 0 0 0,-0.004 7.9375,7.9375 0 0 0 0,-0.004 7.9375,7.9375 0 0 0 -5.1e-4,-0.004 7.9375,7.9375 0 0 0 0,-0.004 7.9375,7.9375 0 0 0 0,-0.004 7.9375,7.9375 0 0 0 0,-0.004 7.9375,7.9375 0 0 0 0,-0.004 7.9375,7.9375 0 0 0 0,-0.004 7.9375,7.9375 0 0 0 0,-0.004 7.9375,7.9375 0 0 0 0.93379,0.0667 7.9375,7.9375 0 0 0 1.5203196,-0.14831 7.9375,7.9375 0 0 0 1.46348,-0.43718 7.9375,7.9375 0 0 0 1.35288,-0.70952 7.9375,7.9375 0 0 0 1.19218,-0.95498 7.9375,7.9375 0 0 0 0.98702,-1.16633 7.9375,7.9375 0 0 0 0.74517,-1.33326 v -19.94555 a 13.229167,13.229167 0 0 0 -1.31981,-1.13533 13.229167,13.229167 0 0 0 -1.45676,-0.9524 13.229167,13.229167 0 0 0 -1.56993,-0.75292 6.6145835,6.6145835 0 0 0 0.25786,-1.02681 6.6145835,6.6145835 0 0 0 0.091,-1.05472 6.6145835,6.6145835 0 0 0 -0.20464,-1.63091 6.6145835,6.6145835 0 0 0 -0.60048,-1.53014 6.6145835,6.6145835 0 0 0 -0.95963,-1.3348 6.6145835,6.6145835 0 0 0 -1.2583296,-1.0573 6.6145835,6.6145835 0 0 0 -1.481041,-0.71365 6.6145835,6.6145835 0 0 0 -1.61076,-0.32711 5.953125,5.9875879 0 0 0 -0.77411,-1.26194 5.953125,5.9875879 0 0 0 -1.05885,-1.03146 5.953125,5.9875879 0 0 0 -1.27847,-0.73846 5.953125,5.9875879 0 0 0 -1.41956,-0.39997 z" />
              <g
                 id="g18"
                 style="fill:#ffffff"
                 transform="translate(-169.88398,-9.3000529)">
                <g
                   id="g17"
                   style="fill:#ffffff">
                  <path
                     id="path16"
                     style="opacity:1;fill:#ffffff;fill-opacity:1;stroke-width:2.23875"
                     d="m 153.6609,118.01037 a 1.984375,1.984375 0 0 0 -1.98437,1.98437 1.984375,1.984375 0 0 0 1.32292,1.86552 v 5.40949 l -4.78111,4.7811 -0.20515,0.20516 v 1.61024 3.74085 h 1.32291 v -4.80332 l 4.88704,-4.88704 0.0992,-0.0992 v -0.73794 -5.21363 a 1.984375,1.984375 0 0 0 1.32292,-1.87121 1.984375,1.984375 0 0 0 -1.98438,-1.98437 z m 0,1.32291 a 0.66145831,0.66145831 0 0 1 0.66146,0.66146 0.66145831,0.66145831 0 0 1 -0.66146,0.66146 0.66145831,0.66145831 0 0 1 -0.66145,-0.66146 0.66145831,0.66145831 0 0 1 0.66145,-0.66146 z" />
                  <path
                     id="path17"
                     style="opacity:1;fill:#ffffff;fill-opacity:1;stroke-width:2.57602"
                     d="m 148.18889,117.35253 v 6.86728 a 1.984375,1.984375 0 0 0 -1.32292,1.86552 1.984375,1.984375 0 0 0 1.98438,1.98437 1.984375,1.984375 0 0 0 1.98437,-1.98437 1.984375,1.984375 0 0 0 -1.32292,-1.86552 v -6.86728 z m 0.66146,8.07134 a 0.66145831,0.66145831 0 0 1 0.66145,0.66146 0.66145831,0.66145831 0 0 1 -0.66145,0.66146 0.66145831,0.66145831 0 0 1 -0.66146,-0.66146 0.66145831,0.66145831 0 0 1 0.66146,-0.66146 z" />
                </g>
                <circle
                   style="opacity:1;fill:#ffffff;fill-opacity:1;stroke-width:2.1887"
                   id="circle17"
                   cx="155.42859"
                   cy="137.97116"
                   r="3.7041667" />
              </g>
            </g>
            <path
               d="m -70.17384,133.17008 a 13.229167,13.229167 0 0 1 0.294556,0.19275 13.229167,13.229167 0 0 1 1.292944,1.11208 v -8.32869 a 2.6458333,2.6458333 0 0 0 0.746208,-0.37259 2.6458333,2.6458333 0 0 0 0.592729,-0.58601 2.6458333,2.6458333 0 0 0 0.381372,-0.74156 2.6458333,2.6458333 0 0 0 0.131775,-0.8232 2.6458333,2.6458333 0 0 0 -0.201538,-1.01286 2.6458333,2.6458333 0 0 0 -0.573609,-0.85835 2.6458333,2.6458333 0 0 0 -0.858345,-0.57361 2.6458333,2.6458333 0 0 0 -1.012342,-0.20102 2.6458333,2.6458333 0 0 0 -1.012341,0.20102 2.6458333,2.6458333 0 0 0 -0.858346,0.57361 2.6458333,2.6458333 0 0 0 -0.573608,0.85835 2.6458333,2.6458333 0 0 0 -0.201538,1.01286 2.6458333,2.6458333 0 0 0 0.132292,0.82217 2.6458333,2.6458333 0 0 0 0.381372,0.74104 2.6458333,2.6458333 0 0 0 0.592728,0.58549 2.6458333,2.6458333 0 0 0 0.745691,0.37207 z m 0.79375,-10.60556 a 1.0583333,1.0583333 0 0 1 0.529167,0.1416 1.0583333,1.0583333 0 0 1 0.387573,0.38757 1.0583333,1.0583333 0 0 1 0.141594,0.52917 1.0583333,1.0583333 0 0 1 -0.02015,0.20619 1.0583333,1.0583333 0 0 1 -0.06046,0.19843 1.0583333,1.0583333 0 0 1 -0.09767,0.18294 1.0583333,1.0583333 0 0 1 -0.131775,0.16071 1.0583333,1.0583333 0 0 1 -0.160197,0.13126 1.0583333,1.0583333 0 0 1 -0.182934,0.0982 1.0583333,1.0583333 0 0 1 -0.198955,0.0599 1.0583333,1.0583333 0 0 1 -0.206189,0.0207 1.0583333,1.0583333 0 0 1 -0.529166,-0.14211 1.0583333,1.0583333 0 0 1 -0.387574,-0.38706 1.0583333,1.0583333 0 0 1 -0.141593,-0.52916 1.0583333,1.0583333 0 0 1 0.141593,-0.52917 1.0583333,1.0583333 0 0 1 0.387574,-0.38757 1.0583333,1.0583333 0 0 1 0.529166,-0.1416 z"
               style="opacity:1;fill:#0e3146;fill-opacity:1;stroke-width:1.84639"
               id="path19" />
          </g>
          <g
             id="g21">
            <path
               id="path20"
               style="fill:#ffffff;stroke-width:1.91009"
               d="m -113.22305,146.49936 a 1.984375,1.984375 0 0 0 -0.28215,0.0202 1.984375,1.984375 0 0 0 -0.27647,0.0605 1.984375,1.984375 0 0 0 -0.26562,0.0987 1.984375,1.984375 0 0 0 -0.24856,0.13591 1.984375,1.984375 0 0 0 -0.22634,0.1695 1.984375,1.984375 0 0 0 -0.20051,0.2005 1.984375,1.984375 0 0 0 -0.1695,0.22634 1.984375,1.984375 0 0 0 -0.13591,0.24857 1.984375,1.984375 0 0 0 -0.0987,0.2651 1.984375,1.984375 0 0 0 -0.0599,0.27698 1.984375,1.984375 0 0 0 -0.0207,0.28216 1.984375,1.984375 0 0 0 0.0207,0.28267 1.984375,1.984375 0 0 0 0.0599,0.27646 1.984375,1.984375 0 0 0 0.0987,0.2651 1.984375,1.984375 0 0 0 0.13591,0.24857 1.984375,1.984375 0 0 0 0.1695,0.22686 1.984375,1.984375 0 0 0 0.20051,0.19999 1.984375,1.984375 0 0 0 0.22634,0.17001 1.984375,1.984375 0 0 0 0.24856,0.13539 1.984375,1.984375 0 0 0 0.26562,0.0992 1.984375,1.984375 0 0 0 0.27647,0.06 1.984375,1.984375 0 0 0 0.28215,0.0202 1.984375,1.984375 0 0 0 0.28267,-0.0202 1.984375,1.984375 0 0 0 0.27647,-0.06 1.984375,1.984375 0 0 0 0.26562,-0.0992 1.984375,1.984375 0 0 0 0.24856,-0.13539 1.984375,1.984375 0 0 0 0.22634,-0.17001 1.984375,1.984375 0 0 0 0.20051,-0.19999 1.984375,1.984375 0 0 0 0.1695,-0.22686 1.984375,1.984375 0 0 0 0.13539,-0.24857 1.984375,1.984375 0 0 0 0.061,-0.16278 h 3.57962 v 3.83595 a 1.3229166,1.3229166 0 0 0 -0.66145,1.14256 1.3229166,1.3229166 0 0 0 1.32291,1.32292 1.3229166,1.3229166 0 0 0 1.32292,-1.32292 1.3229166,1.3229166 0 0 0 -0.66146,-1.14567 v -3.83284 h 9.623187 v -1.32291 h -14.521077 a 1.984375,1.984375 0 0 0 -0.002,-0.007 1.984375,1.984375 0 0 0 -0.0351,-0.0909 1.984375,1.984375 0 0 0 -0.0393,-0.0894 1.984375,1.984375 0 0 0 -0.0439,-0.0868 1.984375,1.984375 0 0 0 -0.0481,-0.0848 1.984375,1.984375 0 0 0 -0.0522,-0.0822 1.984375,1.984375 0 0 0 -0.0558,-0.0796 1.984375,1.984375 0 0 0 -0.06,-0.077 1.984375,1.984375 0 0 0 -0.0636,-0.0739 1.984375,1.984375 0 0 0 -0.0672,-0.0703 1.984375,1.984375 0 0 0 -0.0708,-0.0672 1.984375,1.984375 0 0 0 -0.0734,-0.0636 1.984375,1.984375 0 0 0 -0.077,-0.0599 1.984375,1.984375 0 0 0 -0.0796,-0.0563 1.984375,1.984375 0 0 0 -0.0822,-0.0517 1.984375,1.984375 0 0 0 -0.0847,-0.0481 1.984375,1.984375 0 0 0 -0.0873,-0.0439 1.984375,1.984375 0 0 0 -0.0889,-0.0393 1.984375,1.984375 0 0 0 -0.091,-0.0351 1.984375,1.984375 0 0 0 -0.0925,-0.0305 1.984375,1.984375 0 0 0 -0.0935,-0.0264 1.984375,1.984375 0 0 0 -0.0951,-0.0212 1.984375,1.984375 0 0 0 -0.0961,-0.0165 1.984375,1.984375 0 0 0 -0.0966,-0.0119 1.984375,1.984375 0 0 0 -0.0971,-0.007 1.984375,1.984375 0 0 0 -0.0977,-0.003 z m 0,1.32292 a 0.66145831,0.66145831 0 0 1 0.0548,0.003 0.66145831,0.66145831 0 0 1 0.0543,0.007 0.66145831,0.66145831 0 0 1 0.0537,0.0108 0.66145831,0.66145831 0 0 1 0.0522,0.016 0.66145831,0.66145831 0 0 1 0.0512,0.0196 0.66145831,0.66145831 0 0 1 0.0491,0.0238 0.66145831,0.66145831 0 0 1 0.047,0.0284 0.66145831,0.66145831 0 0 1 0.0444,0.0315 0.66145831,0.66145831 0 0 1 0.0413,0.0351 0.66145831,0.66145831 0 0 1 0.0388,0.0388 0.66145831,0.66145831 0 0 1 0.0357,0.0419 0.66145831,0.66145831 0 0 1 0.0315,0.0444 0.66145831,0.66145831 0 0 1 0.0279,0.047 0.66145831,0.66145831 0 0 1 0.0243,0.0491 0.66145831,0.66145831 0 0 1 0.0196,0.0512 0.66145831,0.66145831 0 0 1 0.0155,0.0522 0.66145831,0.66145831 0 0 1 0.0114,0.0537 0.66145831,0.66145831 0 0 1 0.007,0.0543 0.66145831,0.66145831 0 0 1 0.002,0.0543 0.66145831,0.66145831 0 0 1 -0.0165,0.14728 0.66145831,0.66145831 0 0 1 -0.0486,0.14004 0.66145831,0.66145831 0 0 1 -0.0791,0.12506 0.66145831,0.66145831 0 0 1 -0.10438,0.1049 0.66145831,0.66145831 0 0 1 -0.12558,0.0786 0.66145831,0.66145831 0 0 1 -0.14004,0.0491 0.66145831,0.66145831 0 0 1 -0.14728,0.0165 0.66145831,0.66145831 0 0 1 -0.14676,-0.0165 0.66145831,0.66145831 0 0 1 -0.14004,-0.0491 0.66145831,0.66145831 0 0 1 -0.12558,-0.0786 0.66145831,0.66145831 0 0 1 -0.10438,-0.1049 0.66145831,0.66145831 0 0 1 -0.0791,-0.12506 0.66145831,0.66145831 0 0 1 -0.0486,-0.14004 0.66145831,0.66145831 0 0 1 -0.0171,-0.14728 0.66145831,0.66145831 0 0 1 0.0171,-0.14728 0.66145831,0.66145831 0 0 1 0.0486,-0.13952 0.66145831,0.66145831 0 0 1 0.0791,-0.12558 0.66145831,0.66145831 0 0 1 0.10438,-0.1049 0.66145831,0.66145831 0 0 1 0.12558,-0.0785 0.66145831,0.66145831 0 0 1 0.14004,-0.0491 0.66145831,0.66145831 0 0 1 0.14676,-0.0165 z" />
            <path
               id="path21"
               style="fill:#ffffff;fill-opacity:1;stroke-width:2.07827"
               d="m -110.72582,129.12936 a 1.3229166,1.3229166 0 0 0 -1.32291,1.32292 1.3229166,1.3229166 0 0 0 0.66145,1.14256 v 2.56729 h -1.85208 -1.32292 v 1.32292 4.49791 h -3.43958 v 1.32292 h 3.43958 1.32292 v -1.32292 -4.49791 h 1.85208 1.32292 v -1.32292 -2.56729 a 1.3229166,1.3229166 0 0 0 0.66146,-1.14256 1.3229166,1.3229166 0 0 0 -1.32292,-1.32292 z" />
          </g>
        </g>
        <path
           d="m -96.831267,153.11373 v -1.32292 h -2.778642 -1.322921 v 1.32292 3.42046 a 1.984375,1.984375 0 0 0 -0.16278,0.0605 1.984375,1.984375 0 0 0 -0.24856,0.13591 1.984375,1.984375 0 0 0 -0.22635,0.1695 1.984375,1.984375 0 0 0 -0.2005,0.2005 1.984375,1.984375 0 0 0 -0.1695,0.22635 1.984375,1.984375 0 0 0 -0.13591,0.24856 1.984375,1.984375 0 0 0 -0.0987,0.2651 1.984375,1.984375 0 0 0 -0.0594,0.27699 1.984375,1.984375 0 0 0 -0.0212,0.28215 1.984375,1.984375 0 0 0 0.0212,0.28267 1.984375,1.984375 0 0 0 0.0594,0.27647 1.984375,1.984375 0 0 0 0.0987,0.2651 1.984375,1.984375 0 0 0 0.13591,0.24856 1.984375,1.984375 0 0 0 0.1695,0.22686 1.984375,1.984375 0 0 0 0.2005,0.19999 1.984375,1.984375 0 0 0 0.22635,0.17001 1.984375,1.984375 0 0 0 0.24856,0.1354 1.984375,1.984375 0 0 0 0.26562,0.0992 1.984375,1.984375 0 0 0 0.27647,0.0605 1.984375,1.984375 0 0 0 0.28215,0.0202 1.984375,1.984375 0 0 0 0.282673,-0.0202 1.984375,1.984375 0 0 0 0.276469,-0.0605 1.984375,1.984375 0 0 0 0.265617,-0.0992 1.984375,1.984375 0 0 0 0.248563,-0.1354 1.984375,1.984375 0 0 0 0.226343,-0.17001 1.984375,1.984375 0 0 0 0.200505,-0.19999 1.984375,1.984375 0 0 0 0.169498,-0.22686 1.984375,1.984375 0 0 0 0.135392,-0.24856 1.984375,1.984375 0 0 0 0.09922,-0.2651 1.984375,1.984375 0 0 0 0.06046,-0.27647 1.984375,1.984375 0 0 0 0.0016,-0.0129 1.984375,1.984375 0 0 0 0.0021,-0.0134 1.984375,1.984375 0 0 0 0.0016,-0.0134 1.984375,1.984375 0 0 0 0.0016,-0.0134 1.984375,1.984375 0 0 0 0.0016,-0.0134 1.984375,1.984375 0 0 0 0.0015,-0.0134 1.984375,1.984375 0 0 0 10e-4,-0.0134 1.984375,1.984375 0 0 0 0.0016,-0.0134 1.984375,1.984375 0 0 0 0.001,-0.0134 1.984375,1.984375 0 0 0 0.001,-0.0134 1.984375,1.984375 0 0 0 10e-4,-0.0134 1.984375,1.984375 0 0 0 5.16e-4,-0.0134 1.984375,1.984375 0 0 0 0.001,-0.014 1.984375,1.984375 0 0 0 5.17e-4,-0.0134 1.984375,1.984375 0 0 0 5.16e-4,-0.0134 1.984375,1.984375 0 0 0 5.17e-4,-0.0134 1.984375,1.984375 0 0 0 5.17e-4,-0.0134 1.984375,1.984375 0 0 0 5.17e-4,-0.0134 1.984375,1.984375 0 0 0 0,-0.0134 1.984375,1.984375 0 0 0 5.16e-4,-0.0134 1.984375,1.984375 0 0 0 0,-0.014 1.984375,1.984375 0 0 0 0,-0.004 1.984375,1.984375 0 0 0 0,-0.005 1.984375,1.984375 0 0 0 0,-0.005 1.984375,1.984375 0 0 0 0,-0.005 1.984375,1.984375 0 0 0 0,-0.005 1.984375,1.984375 0 0 0 -5.16e-4,-0.005 1.984375,1.984375 0 0 0 0,-0.005 1.984375,1.984375 0 0 0 0,-0.005 1.984375,1.984375 0 0 0 0,-0.005 1.984375,1.984375 0 0 0 0,-0.005 1.984375,1.984375 0 0 0 0,-0.005 1.984375,1.984375 0 0 0 0,-0.005 1.984375,1.984375 0 0 0 -5.17e-4,-0.005 1.984375,1.984375 0 0 0 0,-0.005 1.984375,1.984375 0 0 0 0,-0.005 1.984375,1.984375 0 0 0 0,-0.005 1.984375,1.984375 0 0 0 -5.17e-4,-0.005 1.984375,1.984375 0 0 0 0,-0.005 1.984375,1.984375 0 0 0 0,-0.005 1.984375,1.984375 0 0 0 -5.17e-4,-0.004 1.984375,1.984375 0 0 0 0,-0.005 1.984375,1.984375 0 0 0 -0.0072,-0.0977 1.984375,1.984375 0 0 0 -0.01189,-0.0961 1.984375,1.984375 0 0 0 -0.01654,-0.0961 1.984375,1.984375 0 0 0 -0.0217,-0.0951 1.984375,1.984375 0 0 0 -0.02584,-0.0935 1.984375,1.984375 0 0 0 -0.03049,-0.0925 1.984375,1.984375 0 0 0 -0.03514,-0.0904 1.984375,1.984375 0 0 0 -0.03927,-0.0894 1.984375,1.984375 0 0 0 -0.04392,-0.0868 1.984375,1.984375 0 0 0 -0.04806,-0.0853 1.984375,1.984375 0 0 0 -0.05219,-0.0822 1.984375,1.984375 0 0 0 -0.05581,-0.0796 1.984375,1.984375 0 0 0 -0.05994,-0.077 1.984375,1.984375 0 0 0 -0.06356,-0.0739 1.984375,1.984375 0 0 0 -0.06718,-0.0703 1.984375,1.984375 0 0 0 -0.0708,-0.0677 1.984375,1.984375 0 0 0 -0.0739,-0.0636 1.984375,1.984375 0 0 0 -0.077,-0.0599 1.984375,1.984375 0 0 0 -0.07958,-0.0558 1.984375,1.984375 0 0 0 -0.08217,-0.0522 1.984375,1.984375 0 0 0 -0.08475,-0.0481 1.984375,1.984375 0 0 0 -0.08733,-0.0439 1.984375,1.984375 0 0 0 -0.08888,-0.0393 1.984375,1.984375 0 0 0 -0.09095,-0.0351 1.984375,1.984375 0 0 0 -0.0067,-0.003 v -3.41529 z m -3.440103,4.62452 a 0.66145831,0.66145831 0 0 1 0.0548,0.003 0.66145831,0.66145831 0 0 1 0.0548,0.007 0.66145831,0.66145831 0 0 1 0.0532,0.0103 0.66145831,0.66145831 0 0 1 0.0522,0.016 0.66145831,0.66145831 0 0 1 0.0517,0.0196 0.66145831,0.66145831 0 0 1 0.0491,0.0238 0.66145831,0.66145831 0 0 1 0.047,0.0284 0.66145831,0.66145831 0 0 1 0.0439,0.0315 0.66145831,0.66145831 0 0 1 0.04134,0.0351 0.66145831,0.66145831 0 0 1 0.03876,0.0388 0.66145831,0.66145831 0 0 1 0.03617,0.0419 0.66145831,0.66145831 0 0 1 0.03101,0.0444 0.66145831,0.66145831 0 0 1 0.02791,0.047 0.66145831,0.66145831 0 0 1 0.02429,0.0491 0.66145831,0.66145831 0 0 1 0.01964,0.0512 0.66145831,0.66145831 0 0 1 0.0155,0.0522 0.66145831,0.66145831 0 0 1 0.01137,0.0538 0.66145831,0.66145831 0 0 1 0.0072,0.0543 0.66145831,0.66145831 0 0 1 5.16e-4,0.005 0.66145831,0.66145831 0 0 1 0,0.005 0.66145831,0.66145831 0 0 1 5.17e-4,0.005 0.66145831,0.66145831 0 0 1 0,0.005 0.66145831,0.66145831 0 0 1 5.17e-4,0.005 0.66145831,0.66145831 0 0 1 0,0.004 0.66145831,0.66145831 0 0 1 0,0.005 0.66145831,0.66145831 0 0 1 5.17e-4,0.005 0.66145831,0.66145831 0 0 1 0,0.005 0.66145831,0.66145831 0 0 1 0,0.005 0.66145831,0.66145831 0 0 1 0,0.005 0.66145831,0.66145831 0 0 1 0,0.004 0.66145831,0.66145831 0 0 1 0,0.0124 0.66145831,0.66145831 0 0 1 -5.17e-4,0.0124 0.66145831,0.66145831 0 0 1 -5.17e-4,0.0124 0.66145831,0.66145831 0 0 1 -0.001,0.0124 0.66145831,0.66145831 0 0 1 -0.001,0.0124 0.66145831,0.66145831 0 0 1 -10e-4,0.0124 0.66145831,0.66145831 0 0 1 -0.0016,0.0124 0.66145831,0.66145831 0 0 1 -0.0015,0.0119 0.66145831,0.66145831 0 0 1 -0.0021,0.0124 0.66145831,0.66145831 0 0 1 -0.0021,0.0124 0.66145831,0.66145831 0 0 1 -0.0026,0.0119 0.66145831,0.66145831 0 0 1 -0.0026,0.0119 0.66145831,0.66145831 0 0 1 -0.04858,0.14004 0.66145831,0.66145831 0 0 1 -0.07906,0.12506 0.66145831,0.66145831 0 0 1 -0.104383,0.1049 0.66145831,0.66145831 0 0 1 -0.12558,0.078 0.66145831,0.66145831 0 0 1 -0.14004,0.0491 0.66145831,0.66145831 0 0 1 -0.14728,0.0165 0.66145831,0.66145831 0 0 1 -0.14676,-0.0165 0.66145831,0.66145831 0 0 1 -0.14004,-0.0491 0.66145831,0.66145831 0 0 1 -0.12558,-0.078 0.66145831,0.66145831 0 0 1 -0.10438,-0.1049 0.66145831,0.66145831 0 0 1 -0.0791,-0.12506 0.66145831,0.66145831 0 0 1 -0.0486,-0.14004 0.66145831,0.66145831 0 0 1 -0.0176,-0.14728 0.66145831,0.66145831 0 0 1 0.0176,-0.14728 0.66145831,0.66145831 0 0 1 0.0486,-0.13952 0.66145831,0.66145831 0 0 1 0.0791,-0.12558 0.66145831,0.66145831 0 0 1 0.10438,-0.1049 0.66145831,0.66145831 0 0 1 0.12558,-0.0791 0.66145831,0.66145831 0 0 1 0.14004,-0.0491 0.66145831,0.66145831 0 0 1 0.14676,-0.0165 z"
           style="fill:#ffffff;stroke-width:1.91009"
           id="path22" />
        <path
           d="m -93.656267,151.79081 v 1.32292 h 4.101039 v -1.32292 -3.7698 a 1.984375,1.984375 0 0 0 0.163298,-0.061 1.984375,1.984375 0 0 0 0.248564,-0.1354 1.984375,1.984375 0 0 0 0.226342,-0.17001 1.984375,1.984375 0 0 0 0.200505,-0.19999 1.984375,1.984375 0 0 0 0.169499,-0.22686 1.984375,1.984375 0 0 0 0.135392,-0.24856 1.984375,1.984375 0 0 0 0.09922,-0.2651 1.984375,1.984375 0 0 0 0.05994,-0.27647 1.984375,1.984375 0 0 0 0.0016,-0.0134 1.984375,1.984375 0 0 0 0.0021,-0.0134 1.984375,1.984375 0 0 0 0.0016,-0.0134 1.984375,1.984375 0 0 0 0.0016,-0.0134 1.984375,1.984375 0 0 0 0.0016,-0.0134 1.984375,1.984375 0 0 0 0.0015,-0.0134 1.984375,1.984375 0 0 0 0.001,-0.0134 1.984375,1.984375 0 0 0 0.0016,-0.0134 1.984375,1.984375 0 0 0 0.001,-0.0134 1.984375,1.984375 0 0 0 10e-4,-0.0134 1.984375,1.984375 0 0 0 0.001,-0.0134 1.984375,1.984375 0 0 0 0.001,-0.0134 1.984375,1.984375 0 0 0 5.17e-4,-0.0134 1.984375,1.984375 0 0 0 5.16e-4,-0.0134 1.984375,1.984375 0 0 0 0.001,-0.014 1.984375,1.984375 0 0 0 5.17e-4,-0.0134 1.984375,1.984375 0 0 0 0,-0.0134 1.984375,1.984375 0 0 0 5.16e-4,-0.0134 1.984375,1.984375 0 0 0 0,-0.0134 1.984375,1.984375 0 0 0 5.17e-4,-0.0134 1.984375,1.984375 0 0 0 0,-0.0134 1.984375,1.984375 0 0 0 0,-0.005 1.984375,1.984375 0 0 0 0,-0.005 1.984375,1.984375 0 0 0 0,-0.005 1.984375,1.984375 0 0 0 0,-0.005 1.984375,1.984375 0 0 0 0,-0.005 1.984375,1.984375 0 0 0 0,-0.005 1.984375,1.984375 0 0 0 0,-0.005 1.984375,1.984375 0 0 0 -5.17e-4,-0.005 1.984375,1.984375 0 0 0 0,-0.005 1.984375,1.984375 0 0 0 0,-0.005 1.984375,1.984375 0 0 0 0,-0.005 1.984375,1.984375 0 0 0 0,-0.005 1.984375,1.984375 0 0 0 0,-0.005 1.984375,1.984375 0 0 0 -5.16e-4,-0.005 1.984375,1.984375 0 0 0 0,-0.005 1.984375,1.984375 0 0 0 0,-0.005 1.984375,1.984375 0 0 0 -5.17e-4,-0.005 1.984375,1.984375 0 0 0 0,-0.005 1.984375,1.984375 0 0 0 0,-0.005 1.984375,1.984375 0 0 0 -5.17e-4,-0.004 1.984375,1.984375 0 0 0 0,-0.005 1.984375,1.984375 0 0 0 -0.0072,-0.0972 1.984375,1.984375 0 0 0 -0.01189,-0.0966 1.984375,1.984375 0 0 0 -0.01654,-0.0961 1.984375,1.984375 0 0 0 -0.0217,-0.0951 1.984375,1.984375 0 0 0 -0.02532,-0.093 1.984375,1.984375 0 0 0 -0.03049,-0.0925 1.984375,1.984375 0 0 0 -0.03514,-0.0909 1.984375,1.984375 0 0 0 -0.03927,-0.0894 1.984375,1.984375 0 0 0 -0.04393,-0.0868 1.984375,1.984375 0 0 0 -0.04806,-0.0848 1.984375,1.984375 0 0 0 -0.05219,-0.0827 1.984375,1.984375 0 0 0 -0.05581,-0.0796 1.984375,1.984375 0 0 0 -0.05994,-0.077 1.984375,1.984375 0 0 0 -0.06356,-0.0739 1.984375,1.984375 0 0 0 -0.0677,-0.0703 1.984375,1.984375 0 0 0 -0.0708,-0.0672 1.984375,1.984375 0 0 0 -0.0739,-0.0636 1.984375,1.984375 0 0 0 -0.077,-0.0599 1.984375,1.984375 0 0 0 -0.07958,-0.0563 1.984375,1.984375 0 0 0 -0.08217,-0.0517 1.984375,1.984375 0 0 0 -0.08475,-0.0481 1.984375,1.984375 0 0 0 -0.08682,-0.0439 1.984375,1.984375 0 0 0 -0.08888,-0.0393 1.984375,1.984375 0 0 0 -0.09147,-0.0351 1.984375,1.984375 0 0 0 -0.0925,-0.0305 1.984375,1.984375 0 0 0 -0.09354,-0.0264 1.984375,1.984375 0 0 0 -0.09508,-0.0212 1.984375,1.984375 0 0 0 -0.09612,-0.0165 1.984375,1.984375 0 0 0 -0.0956,-0.0119 1.984375,1.984375 0 0 0 -0.09715,-0.007 1.984375,1.984375 0 0 0 -0.09767,-0.003 l -0.001,5.1e-4 a 1.984375,1.984375 0 0 0 -0.282153,0.0202 1.984375,1.984375 0 0 0 -0.276469,0.0605 1.984375,1.984375 0 0 0 -0.265617,0.0987 1.984375,1.984375 0 0 0 -0.248563,0.13591 1.984375,1.984375 0 0 0 -0.226343,0.1695 1.984375,1.984375 0 0 0 -0.20051,0.2005 1.984375,1.984375 0 0 0 -0.16949,0.22635 1.984375,1.984375 0 0 0 -0.13591,0.24856 1.984375,1.984375 0 0 0 -0.0987,0.2651 1.984375,1.984375 0 0 0 -0.0594,0.27698 1.984375,1.984375 0 0 0 -0.0207,0.28216 1.984375,1.984375 0 0 0 0.0207,0.28267 1.984375,1.984375 0 0 0 0.0594,0.27647 1.984375,1.984375 0 0 0 0.0987,0.2651 1.984375,1.984375 0 0 0 0.13591,0.24856 1.984375,1.984375 0 0 0 0.16949,0.22686 1.984375,1.984375 0 0 0 0.20051,0.19999 1.984375,1.984375 0 0 0 0.226343,0.17001 1.984375,1.984375 0 0 0 0.248563,0.1354 1.984375,1.984375 0 0 0 0.162781,0.061 v 3.7698 z m 3.439064,-6.29729 a 0.66145831,0.66145831 0 0 1 0.05529,0.003 0.66145831,0.66145831 0 0 1 0.05426,0.007 0.66145831,0.66145831 0 0 1 0.05374,0.0109 0.66145831,0.66145831 0 0 1 0.05219,0.016 0.66145831,0.66145831 0 0 1 0.05116,0.0196 0.66145831,0.66145831 0 0 1 0.04909,0.0238 0.66145831,0.66145831 0 0 1 0.04703,0.0284 0.66145831,0.66145831 0 0 1 0.04393,0.0315 0.66145831,0.66145831 0 0 1 0.04186,0.0346 0.66145831,0.66145831 0 0 1 0.03824,0.0393 0.66145831,0.66145831 0 0 1 0.03617,0.0419 0.66145831,0.66145831 0 0 1 0.03152,0.045 0.66145831,0.66145831 0 0 1 0.02791,0.0465 0.66145831,0.66145831 0 0 1 0.02429,0.0491 0.66145831,0.66145831 0 0 1 0.01912,0.0517 0.66145831,0.66145831 0 0 1 0.0155,0.0522 0.66145831,0.66145831 0 0 1 0.01188,0.0532 0.66145831,0.66145831 0 0 1 0.0067,0.0548 0.66145831,0.66145831 0 0 1 5.17e-4,0.004 0.66145831,0.66145831 0 0 1 0,0.005 0.66145831,0.66145831 0 0 1 5.17e-4,0.005 0.66145831,0.66145831 0 0 1 0,0.005 0.66145831,0.66145831 0 0 1 5.17e-4,0.004 0.66145831,0.66145831 0 0 1 0,0.005 0.66145831,0.66145831 0 0 1 0,0.005 0.66145831,0.66145831 0 0 1 5.16e-4,0.005 0.66145831,0.66145831 0 0 1 0,0.005 0.66145831,0.66145831 0 0 1 0,0.004 0.66145831,0.66145831 0 0 1 0,0.005 0.66145831,0.66145831 0 0 1 0,0.005 0.66145831,0.66145831 0 0 1 0,0.0124 0.66145831,0.66145831 0 0 1 -5.16e-4,0.0124 0.66145831,0.66145831 0 0 1 -5.17e-4,0.0124 0.66145831,0.66145831 0 0 1 -10e-4,0.0124 0.66145831,0.66145831 0 0 1 -0.001,0.0119 0.66145831,0.66145831 0 0 1 -0.001,0.0124 0.66145831,0.66145831 0 0 1 -0.0015,0.0124 0.66145831,0.66145831 0 0 1 -0.0016,0.0124 0.66145831,0.66145831 0 0 1 -0.0021,0.0119 0.66145831,0.66145831 0 0 1 -0.0021,0.0124 0.66145831,0.66145831 0 0 1 -0.0026,0.0119 0.66145831,0.66145831 0 0 1 -0.0026,0.0124 0.66145831,0.66145831 0 0 1 -0.04858,0.14004 0.66145831,0.66145831 0 0 1 -0.07906,0.12506 0.66145831,0.66145831 0 0 1 -0.104386,0.1049 0.66145831,0.66145831 0 0 1 -0.125574,0.0786 0.66145831,0.66145831 0 0 1 -0.140043,0.0491 0.66145831,0.66145831 0 0 1 -0.147278,0.016 0.66145831,0.66145831 0 0 1 -0.146761,-0.016 0.66145831,0.66145831 0 0 1 -0.140043,-0.0491 0.66145831,0.66145831 0 0 1 -0.125574,-0.0786 0.66145831,0.66145831 0 0 1 -0.104386,-0.1049 0.66145831,0.66145831 0 0 1 -0.07906,-0.12506 0.66145831,0.66145831 0 0 1 -0.04858,-0.14004 0.66145831,0.66145831 0 0 1 -0.01757,-0.14728 0.66145831,0.66145831 0 0 1 0.01757,-0.14728 0.66145831,0.66145831 0 0 1 0.04858,-0.13953 0.66145831,0.66145831 0 0 1 0.07906,-0.12557 0.66145831,0.66145831 0 0 1 0.104386,-0.1049 0.66145831,0.66145831 0 0 1 0.125574,-0.0785 0.66145831,0.66145831 0 0 1 0.140043,-0.0491 0.66145831,0.66145831 0 0 1 0.146761,-0.0165 z"
           style="fill:#ffffff;stroke-width:1.91009"
           id="path23" />
      </g>
    </g>
  </g>
</svg>
